<mxfile host="app.diagrams.net" agent="Mozilla/5.0 (Windows NT 10.0; Win64; x64) AppleWebKit/537.36 (KHTML, like Gecko) Chrome/136.0.0.0 Safari/537.36 Edg/136.0.0.0" version="27.0.8" pages="2">
  <diagram name="Page-1" id="vfG0SCKjqvKU89ET6gki">
    <mxGraphModel dx="1174" dy="2394" grid="1" gridSize="10" guides="1" tooltips="1" connect="1" arrows="1" fold="1" page="1" pageScale="1" pageWidth="850" pageHeight="1100" math="0" shadow="0">
      <root>
        <mxCell id="0" />
        <mxCell id="1" parent="0" />
      </root>
    </mxGraphModel>
  </diagram>
  <diagram id="2LCKXGSV7CrsQwOup464" name="Page-2">
    <mxGraphModel dx="3592" dy="1676" grid="1" gridSize="10" guides="1" tooltips="1" connect="1" arrows="1" fold="1" page="1" pageScale="1" pageWidth="850" pageHeight="1100" math="0" shadow="0">
      <root>
        <mxCell id="0" />
        <mxCell id="1" parent="0" />
        <UserObject label="" plantUmlData="{&#xa;  &quot;data&quot;: &quot;@startuml\nleft to right direction\nskinparam packageStyle rectangle\n\nactor \&quot;Người chơi\&quot; as Player\nactor \&quot;Chủ phòng\&quot; as Host\nactor \&quot;Hệ thống\&quot; as System\n\nrectangle \&quot;Hệ thống game bắn súng nhiều người chơi\&quot; {\n  \n  usecase \&quot;Tạo phòng\&quot; as UC_CreateRoom\n  usecase \&quot;Bắt đầu trận đấu\&quot; as UC_StartMatch\n  usecase \&quot;Tham gia phòng\&quot; as UC_JoinRoom\n  usecase \&quot;Đợi chủ phòng bắt đầu\&quot; as UC_WaitStart\n  usecase \&quot;Di chuyển trên bản đồ\&quot; as UC_Move\n  usecase \&quot;Thu thập vũ khí\&quot; as UC_CollectWeapons\n  usecase \&quot;Thu thập vật phẩm buff\&quot; as UC_CollectBuffs\n  usecase \&quot;Tấn công người chơi khác\&quot; as UC_Attack\n  usecase \&quot;Hạ gục đối thủ\&quot; as UC_Kill\n  usecase \&quot;Đếm ngược hồi sinh\&quot; as UC_RespawnCountdown\n  usecase \&quot;Hồi sinh sau khi chết\&quot; as UC_Respawn\n  usecase \&quot;Sống sót đến hết thời gian\&quot; as UC_Survive\n  usecase \&quot;Tính toán điểm số &amp; kết quả\&quot; as UC_CalcScore\n  usecase \&quot;Hiển thị bảng xếp hạng &amp; vinh danh\&quot; as UC_ShowRanking\n  usecase \&quot;Rơi vật phẩm\&quot; as UC_DropItems\n  usecase \&quot;Kiểm tra thời gian trận đấu\&quot; as UC_CheckTime\n}\n\nHost --&gt; UC_CreateRoom\nHost --&gt; UC_StartMatch\n\nPlayer --&gt; UC_JoinRoom\nPlayer --&gt; UC_WaitStart\nPlayer --&gt; UC_Move\nPlayer --&gt; UC_CollectWeapons\nPlayer --&gt; UC_CollectBuffs\nPlayer --&gt; UC_Attack\nPlayer --&gt; UC_Kill\nPlayer --&gt; UC_Respawn\nPlayer --&gt; UC_Survive\n\nSystem --&gt; UC_CalcScore\nSystem --&gt; UC_ShowRanking\nSystem --&gt; UC_DropItems\nSystem --&gt; UC_CheckTime\nSystem --&gt; UC_RespawnCountdown\n\nUC_CreateRoom --&gt; UC_StartMatch\nUC_StartMatch --&gt; UC_Move\nUC_Move --&gt; UC_CollectWeapons\nUC_CollectWeapons --&gt; UC_CollectBuffs\nUC_CollectBuffs --&gt; UC_Attack\nUC_Attack --&gt; UC_Kill\n\n&#39; Use case mở rộng (extend)\nUC_Kill .&gt; UC_DropItems : &lt;&lt;extend&gt;&gt;\nUC_Kill .&gt; UC_RespawnCountdown : &lt;&lt;extend&gt;&gt;\nUC_RespawnCountdown .&gt; UC_Respawn : &lt;&lt;include&gt;&gt;\n\nUC_Respawn .&gt; UC_Move\n\nUC_Survive --&gt; UC_CalcScore\nUC_CalcScore --&gt; UC_ShowRanking\n\n@enduml\n&quot;,&#xa;  &quot;format&quot;: &quot;svg&quot;&#xa;}" id="wpfcwqCC3rGuq9T8k83W-2">
          <mxCell style="shape=image;noLabel=1;verticalAlign=top;aspect=fixed;imageAspect=0;image=data:image/svg+xml,PHN2ZyB4bWxucz0iaHR0cDovL3d3dy53My5vcmcvMjAwMC9zdmciIHhtbG5zOnhsaW5rPSJodHRwOi8vd3d3LnczLm9yZy8xOTk5L3hsaW5rIiBjb250ZW50U3R5bGVUeXBlPSJ0ZXh0L2NzcyIgZGF0YS1kaWFncmFtLXR5cGU9IkRFU0NSSVBUSU9OIiBoZWlnaHQ9IjExOTZweCIgcHJlc2VydmVBc3BlY3RSYXRpbz0ibm9uZSIgc3R5bGU9IndpZHRoOjE3NjhweDtoZWlnaHQ6MTE5NnB4O2JhY2tncm91bmQ6I0ZGRkZGRjsiIHZlcnNpb249IjEuMSIgdmlld0JveD0iMCAwIDE3NjggMTE5NiIgd2lkdGg9IjE3NjhweCIgem9vbUFuZFBhbj0ibWFnbmlmeSI+PGRlZnMvPjxnPjwhLS1jbHVzdGVyIEg/IHRoP25nIGdhbWUgYj9uIHM/bmcgbmhpP3Ugbmc/P2kgY2g/aS0tPjxnIGNsYXNzPSJjbHVzdGVyIiBkYXRhLWVudGl0eT0iSCYjNzg3OTsgdGgmIzc4ODk7bmcgZ2FtZSBiJiM3ODU1O24gcyYjMjUwO25nIG5oaSYjNzg3Mzt1IG5nJiM0MzI7JiM3OTAxO2kgY2gmIzQxNztpIiBkYXRhLXNvdXJjZS1saW5lPSI4IiBkYXRhLXVpZD0iZW50MDAwNSIgaWQ9ImNsdXN0ZXJfSCYjNzg3OTsgdGgmIzc4ODk7bmcgZ2FtZSBiJiM3ODU1O24gcyYjMjUwO25nIG5oaSYjNzg3Mzt1IG5nJiM0MzI7JiM3OTAxO2kgY2gmIzQxNztpIj48cmVjdCBmaWxsPSJub25lIiBoZWlnaHQ9IjQ2NiIgcng9IjIuNSIgcnk9IjIuNSIgc3R5bGU9InN0cm9rZTojMTgxODE4O3N0cm9rZS13aWR0aDoxOyIgd2lkdGg9IjE2MzkiIHg9IjEyMyIgeT0iMzA0Ii8+PHRleHQgZmlsbD0iIzAwMDAwMCIgZm9udC1mYW1pbHk9InNhbnMtc2VyaWYiIGZvbnQtc2l6ZT0iMTQiIGZvbnQtd2VpZ2h0PSJib2xkIiBsZW5ndGhBZGp1c3Q9InNwYWNpbmciIHRleHRMZW5ndGg9IjI3MyIgeD0iODA2IiB5PSIzMTkuMjM0NCI+SCYjNzg3OTsgdGgmIzc4ODk7bmcgZ2FtZSBiJiM3ODU1O24gcyYjMjUwO25nIG5oaSYjNzg3Mzt1IG5nJiM0MzI7JiM3OTAxO2kgY2gmIzQxNztpPC90ZXh0PjwvZz48ZyBjbGFzcz0iZW50aXR5IiBkYXRhLWVudGl0eT0iVUNfQ3JlYXRlUm9vbSIgZGF0YS1zb3VyY2UtbGluZT0iMTAiIGRhdGEtdWlkPSJlbnQwMDA2IiBpZD0iZW50aXR5X1VDX0NyZWF0ZVJvb20iPjxlbGxpcHNlIGN4PSIyNDkuNTA1NCIgY3k9IjY1Ni4xMDExIiBmaWxsPSIjRjFGMUYxIiByeD0iNTYuMDA1NCIgcnk9IjEzLjYwMTEiIHN0eWxlPSJzdHJva2U6IzE4MTgxODtzdHJva2Utd2lkdGg6MC41OyIvPjx0ZXh0IGZpbGw9IiMwMDAwMDAiIGZvbnQtZmFtaWx5PSJzYW5zLXNlcmlmIiBmb250LXNpemU9IjE0IiBsZW5ndGhBZGp1c3Q9InNwYWNpbmciIHRleHRMZW5ndGg9IjYzIiB4PSIyMTguMDA1NCIgeT0iNjU5Ljg0MzMiPlQmIzc4NDE7byBwaCYjMjQyO25nPC90ZXh0PjwvZz48ZyBjbGFzcz0iZW50aXR5IiBkYXRhLWVudGl0eT0iVUNfU3RhcnRNYXRjaCIgZGF0YS1zb3VyY2UtbGluZT0iMTEiIGRhdGEtdWlkPSJlbnQwMDA3IiBpZD0iZW50aXR5X1VDX1N0YXJ0TWF0Y2giPjxlbGxpcHNlIGN4PSI1MzEuNDM4NCIgY3k9IjYzMi45ODc3IiBmaWxsPSIjRjFGMUYxIiByeD0iNzUuNDM4NCIgcnk9IjE3LjQ4NzciIHN0eWxlPSJzdHJva2U6IzE4MTgxODtzdHJva2Utd2lkdGg6MC41OyIvPjx0ZXh0IGZpbGw9IiMwMDAwMDAiIGZvbnQtZmFtaWx5PSJzYW5zLXNlcmlmIiBmb250LXNpemU9IjE0IiBsZW5ndGhBZGp1c3Q9InNwYWNpbmciIHRleHRMZW5ndGg9IjExMiIgeD0iNDc1LjQzODQiIHk9IjYzNi43Mjk5Ij5CJiM3ODU1O3QgJiMyNzM7JiM3ODQ3O3UgdHImIzc4NTM7biAmIzI3MzsmIzc4NDU7dTwvdGV4dD48L2c+PGcgY2xhc3M9ImVudGl0eSIgZGF0YS1lbnRpdHk9IlVDX0pvaW5Sb29tIiBkYXRhLXNvdXJjZS1saW5lPSIxMiIgZGF0YS11aWQ9ImVudDAwMDgiIGlkPSJlbnRpdHlfVUNfSm9pblJvb20iPjxlbGxpcHNlIGN4PSIyNDkuNTQ1NiIgY3k9IjU5MC44MDkxIiBmaWxsPSIjRjFGMUYxIiByeD0iNjkuNTQ1NiIgcnk9IjE2LjMwOTEiIHN0eWxlPSJzdHJva2U6IzE4MTgxODtzdHJva2Utd2lkdGg6MC41OyIvPjx0ZXh0IGZpbGw9IiMwMDAwMDAiIGZvbnQtZmFtaWx5PSJzYW5zLXNlcmlmIiBmb250LXNpemU9IjE0IiBsZW5ndGhBZGp1c3Q9InNwYWNpbmciIHRleHRMZW5ndGg9Ijk4IiB4PSIyMDAuNTQ1NiIgeT0iNTk0LjU1MTMiPlRoYW0gZ2lhIHBoJiMyNDI7bmc8L3RleHQ+PC9nPjxnIGNsYXNzPSJlbnRpdHkiIGRhdGEtZW50aXR5PSJVQ19XYWl0U3RhcnQiIGRhdGEtc291cmNlLWxpbmU9IjEzIiBkYXRhLXVpZD0iZW50MDAwOSIgaWQ9ImVudGl0eV9VQ19XYWl0U3RhcnQiPjxlbGxpcHNlIGN4PSIyNDkuMzgzOSIgY3k9IjQzNS4wNzY4IiBmaWxsPSIjRjFGMUYxIiByeD0iOTAuODgzOSIgcnk9IjIwLjU3NjgiIHN0eWxlPSJzdHJva2U6IzE4MTgxODtzdHJva2Utd2lkdGg6MC41OyIvPjx0ZXh0IGZpbGw9IiMwMDAwMDAiIGZvbnQtZmFtaWx5PSJzYW5zLXNlcmlmIiBmb250LXNpemU9IjE0IiBsZW5ndGhBZGp1c3Q9InNwYWNpbmciIHRleHRMZW5ndGg9IjE0NyIgeD0iMTc1Ljg4MzkiIHk9IjQzOC44MTkiPiYjMjcyOyYjNzkwNztpIGNoJiM3OTExOyBwaCYjMjQyO25nIGImIzc4NTU7dCAmIzI3MzsmIzc4NDc7dTwvdGV4dD48L2c+PGcgY2xhc3M9ImVudGl0eSIgZGF0YS1lbnRpdHk9IlVDX01vdmUiIGRhdGEtc291cmNlLWxpbmU9IjE0IiBkYXRhLXVpZD0iZW50MDAxMCIgaWQ9ImVudGl0eV9VQ19Nb3ZlIj48ZWxsaXBzZSBjeD0iODk1LjM4MzkiIGN5PSI1MDIuMDc2OCIgZmlsbD0iI0YxRjFGMSIgcng9IjkwLjg4MzkiIHJ5PSIyMC41NzY4IiBzdHlsZT0ic3Ryb2tlOiMxODE4MTg7c3Ryb2tlLXdpZHRoOjAuNTsiLz48dGV4dCBmaWxsPSIjMDAwMDAwIiBmb250LWZhbWlseT0ic2Fucy1zZXJpZiIgZm9udC1zaXplPSIxNCIgbGVuZ3RoQWRqdXN0PSJzcGFjaW5nIiB0ZXh0TGVuZ3RoPSIxNDciIHg9IjgyMS44ODM5IiB5PSI1MDUuODE5Ij5EaSBjaHV5JiM3ODc1O24gdHImIzIzNDtuIGImIzc4NDM7biAmIzI3MzsmIzc4OTE7PC90ZXh0PjwvZz48ZyBjbGFzcz0iZW50aXR5IiBkYXRhLWVudGl0eT0iVUNfQ29sbGVjdFdlYXBvbnMiIGRhdGEtc291cmNlLWxpbmU9IjE1IiBkYXRhLXVpZD0iZW50MDAxMSIgaWQ9ImVudGl0eV9VQ19Db2xsZWN0V2VhcG9ucyI+PGVsbGlwc2UgY3g9IjExNjIuNDY2MyIgY3k9IjQwMi44OTMzIiBmaWxsPSIjRjFGMUYxIiByeD0iNzIuNDY2MyIgcnk9IjE2Ljg5MzMiIHN0eWxlPSJzdHJva2U6IzE4MTgxODtzdHJva2Utd2lkdGg6MC41OyIvPjx0ZXh0IGZpbGw9IiMwMDAwMDAiIGZvbnQtZmFtaWx5PSJzYW5zLXNlcmlmIiBmb250LXNpemU9IjE0IiBsZW5ndGhBZGp1c3Q9InNwYWNpbmciIHRleHRMZW5ndGg9IjEwNSIgeD0iMTEwOS45NjYzIiB5PSI0MDYuNjM1NSI+VGh1IHRoJiM3ODUzO3AgdiYjMzYxOyBraCYjMjM3OzwvdGV4dD48L2c+PGcgY2xhc3M9ImVudGl0eSIgZGF0YS1lbnRpdHk9IlVDX0NvbGxlY3RCdWZmcyIgZGF0YS1zb3VyY2UtbGluZT0iMTYiIGRhdGEtdWlkPSJlbnQwMDEyIiBpZD0iZW50aXR5X1VDX0NvbGxlY3RCdWZmcyI+PGVsbGlwc2UgY3g9IjEzOTAuMDYyMiIgY3k9IjQwMy4yMTI0IiBmaWxsPSIjRjFGMUYxIiByeD0iOTQuMDYyMiIgcnk9IjIxLjIxMjQiIHN0eWxlPSJzdHJva2U6IzE4MTgxODtzdHJva2Utd2lkdGg6MC41OyIvPjx0ZXh0IGZpbGw9IiMwMDAwMDAiIGZvbnQtZmFtaWx5PSJzYW5zLXNlcmlmIiBmb250LXNpemU9IjE0IiBsZW5ndGhBZGp1c3Q9InNwYWNpbmciIHRleHRMZW5ndGg9IjE1NCIgeD0iMTMxMy4wNjIyIiB5PSI0MDYuOTU0NiI+VGh1IHRoJiM3ODUzO3AgdiYjNzg1Mzt0IHBoJiM3ODQ5O20gYnVmZjwvdGV4dD48L2c+PGcgY2xhc3M9ImVudGl0eSIgZGF0YS1lbnRpdHk9IlVDX0F0dGFjayIgZGF0YS1zb3VyY2UtbGluZT0iMTciIGRhdGEtdWlkPSJlbnQwMDEzIiBpZD0iZW50aXR5X1VDX0F0dGFjayI+PGVsbGlwc2UgY3g9IjE2NDUuNDg1IiBjeT0iMzU5Ljk5NyIgZmlsbD0iI0YxRjFGMSIgcng9IjEwMC40ODUiIHJ5PSIyMi40OTciIHN0eWxlPSJzdHJva2U6IzE4MTgxODtzdHJva2Utd2lkdGg6MC41OyIvPjx0ZXh0IGZpbGw9IiMwMDAwMDAiIGZvbnQtZmFtaWx5PSJzYW5zLXNlcmlmIiBmb250LXNpemU9IjE0IiBsZW5ndGhBZGp1c3Q9InNwYWNpbmciIHRleHRMZW5ndGg9IjE2OCIgeD0iMTU2MS40ODUiIHk9IjM2My43MzkyIj5UJiM3ODQ1O24gYyYjMjQ0O25nIG5nJiM0MzI7JiM3OTAxO2kgY2gmIzQxNztpIGtoJiMyMjU7YzwvdGV4dD48L2c+PGcgY2xhc3M9ImVudGl0eSIgZGF0YS1lbnRpdHk9IlVDX0tpbGwiIGRhdGEtc291cmNlLWxpbmU9IjE4IiBkYXRhLXVpZD0iZW50MDAxNCIgaWQ9ImVudGl0eV9VQ19LaWxsIj48ZWxsaXBzZSBjeD0iODk1LjU0NTYiIGN5PSIzNTMuODA5MSIgZmlsbD0iI0YxRjFGMSIgcng9IjY5LjU0NTYiIHJ5PSIxNi4zMDkxIiBzdHlsZT0ic3Ryb2tlOiMxODE4MTg7c3Ryb2tlLXdpZHRoOjAuNTsiLz48dGV4dCBmaWxsPSIjMDAwMDAwIiBmb250LWZhbWlseT0ic2Fucy1zZXJpZiIgZm9udC1zaXplPSIxNCIgbGVuZ3RoQWRqdXN0PSJzcGFjaW5nIiB0ZXh0TGVuZ3RoPSI5OCIgeD0iODQ2LjU0NTYiIHk9IjM1Ny41NTEzIj5IJiM3ODQxOyBnJiM3OTA5O2MgJiMyNzM7JiM3ODg5O2kgdGgmIzc5MTE7PC90ZXh0PjwvZz48ZyBjbGFzcz0iZW50aXR5IiBkYXRhLWVudGl0eT0iVUNfUmVzcGF3bkNvdW50ZG93biIgZGF0YS1zb3VyY2UtbGluZT0iMTkiIGRhdGEtdWlkPSJlbnQwMDE1IiBpZD0iZW50aXR5X1VDX1Jlc3Bhd25Db3VudGRvd24iPjxlbGxpcHNlIGN4PSI4OTUuNTEzMiIgY3k9IjY3MC4yMDI2IiBmaWxsPSIjRjFGMUYxIiByeD0iODEuNTEzMiIgcnk9IjE4LjcwMjYiIHN0eWxlPSJzdHJva2U6IzE4MTgxODtzdHJva2Utd2lkdGg6MC41OyIvPjx0ZXh0IGZpbGw9IiMwMDAwMDAiIGZvbnQtZmFtaWx5PSJzYW5zLXNlcmlmIiBmb250LXNpemU9IjE0IiBsZW5ndGhBZGp1c3Q9InNwYWNpbmciIHRleHRMZW5ndGg9IjEyNiIgeD0iODMyLjUxMzIiIHk9IjY3My45NDQ4Ij4mIzI3MjsmIzc4NzE7bSBuZyYjNDMyOyYjNzkwNztjIGgmIzc4OTE7aSBzaW5oPC90ZXh0PjwvZz48ZyBjbGFzcz0iZW50aXR5IiBkYXRhLWVudGl0eT0iVUNfUmVzcGF3biIgZGF0YS1zb3VyY2UtbGluZT0iMjAiIGRhdGEtdWlkPSJlbnQwMDE2IiBpZD0iZW50aXR5X1VDX1Jlc3Bhd24iPjxlbGxpcHNlIGN4PSI4OTUuMzgzOSIgY3k9IjQyNi4wNzY4IiBmaWxsPSIjRjFGMUYxIiByeD0iOTAuODgzOSIgcnk9IjIwLjU3NjgiIHN0eWxlPSJzdHJva2U6IzE4MTgxODtzdHJva2Utd2lkdGg6MC41OyIvPjx0ZXh0IGZpbGw9IiMwMDAwMDAiIGZvbnQtZmFtaWx5PSJzYW5zLXNlcmlmIiBmb250LXNpemU9IjE0IiBsZW5ndGhBZGp1c3Q9InNwYWNpbmciIHRleHRMZW5ndGg9IjE0NyIgeD0iODIxLjg4MzkiIHk9IjQyOS44MTkiPkgmIzc4OTE7aSBzaW5oIHNhdSBraGkgY2gmIzc4NzE7dDwvdGV4dD48L2c+PGcgY2xhc3M9ImVudGl0eSIgZGF0YS1lbnRpdHk9IlVDX1N1cnZpdmUiIGRhdGEtc291cmNlLWxpbmU9IjIxIiBkYXRhLXVpZD0iZW50MDAxNyIgaWQ9ImVudGl0eV9VQ19TdXJ2aXZlIj48ZWxsaXBzZSBjeD0iMjQ5LjQ4MjMiIGN5PSI1MTQuNzk2NSIgZmlsbD0iI0YxRjFGMSIgcng9IjEwNi45ODIzIiByeT0iMjMuNzk2NSIgc3R5bGU9InN0cm9rZTojMTgxODE4O3N0cm9rZS13aWR0aDowLjU7Ii8+PHRleHQgZmlsbD0iIzAwMDAwMCIgZm9udC1mYW1pbHk9InNhbnMtc2VyaWYiIGZvbnQtc2l6ZT0iMTQiIGxlbmd0aEFkanVzdD0ic3BhY2luZyIgdGV4dExlbmd0aD0iMTgyIiB4PSIxNTguNDgyMyIgeT0iNTE4LjUzODciPlMmIzc4ODk7bmcgcyYjMjQzO3QgJiMyNzM7JiM3ODcxO24gaCYjNzg3MTt0IHRoJiM3OTAxO2kgZ2lhbjwvdGV4dD48L2c+PGcgY2xhc3M9ImVudGl0eSIgZGF0YS1lbnRpdHk9IlVDX0NhbGNTY29yZSIgZGF0YS1zb3VyY2UtbGluZT0iMjIiIGRhdGEtdWlkPSJlbnQwMDE4IiBpZD0iZW50aXR5X1VDX0NhbGNTY29yZSI+PGVsbGlwc2UgY3g9IjUzMS4yNTQ3IiBjeT0iNzA5Ljk1MDkiIGZpbGw9IiNGMUYxRjEiIHJ4PSIxMTAuMjU0NyIgcnk9IjI0LjQ1MDkiIHN0eWxlPSJzdHJva2U6IzE4MTgxODtzdHJva2Utd2lkdGg6MC41OyIvPjx0ZXh0IGZpbGw9IiMwMDAwMDAiIGZvbnQtZmFtaWx5PSJzYW5zLXNlcmlmIiBmb250LXNpemU9IjE0IiBsZW5ndGhBZGp1c3Q9InNwYWNpbmciIHRleHRMZW5ndGg9IjE4OSIgeD0iNDM2Ljc1NDciIHk9IjcxMy42OTMxIj5UJiMyMzc7bmggdG8mIzIyNTtuICYjMjczO2kmIzc4NzU7bSBzJiM3ODg5OyAmYW1wOyBrJiM3ODcxO3QgcXUmIzc4NDM7PC90ZXh0PjwvZz48ZyBjbGFzcz0iZW50aXR5IiBkYXRhLWVudGl0eT0iVUNfU2hvd1JhbmtpbmciIGRhdGEtc291cmNlLWxpbmU9IjIzIiBkYXRhLXVpZD0iZW50MDAxOSIgaWQ9ImVudGl0eV9VQ19TaG93UmFua2luZyI+PGVsbGlwc2UgY3g9Ijg5NS40OTI2IiBjeT0iNTg3LjA5ODUiIGZpbGw9IiNGMUYxRjEiIHJ4PSIxMzMuNDkyNiIgcnk9IjI5LjA5ODUiIHN0eWxlPSJzdHJva2U6IzE4MTgxODtzdHJva2Utd2lkdGg6MC41OyIvPjx0ZXh0IGZpbGw9IiMwMDAwMDAiIGZvbnQtZmFtaWx5PSJzYW5zLXNlcmlmIiBmb250LXNpemU9IjE0IiBsZW5ndGhBZGp1c3Q9InNwYWNpbmciIHRleHRMZW5ndGg9IjIzOCIgeD0iNzc2LjQ5MjYiIHk9IjU5MC44NDA3Ij5IaSYjNzg3NTtuIHRoJiM3ODgzOyBiJiM3ODQzO25nIHgmIzc4NzE7cCBoJiM3ODQxO25nICZhbXA7IHZpbmggZGFuaDwvdGV4dD48L2c+PGcgY2xhc3M9ImVudGl0eSIgZGF0YS1lbnRpdHk9IlVDX0Ryb3BJdGVtcyIgZGF0YS1zb3VyY2UtbGluZT0iMjQiIGRhdGEtdWlkPSJlbnQwMDIwIiBpZD0iZW50aXR5X1VDX0Ryb3BJdGVtcyI+PGVsbGlwc2UgY3g9Ijg5NS4zODc4IiBjeT0iNzM5LjE3NzYiIGZpbGw9IiNGMUYxRjEiIHJ4PSI2My44ODc4IiByeT0iMTUuMTc3NiIgc3R5bGU9InN0cm9rZTojMTgxODE4O3N0cm9rZS13aWR0aDowLjU7Ii8+PHRleHQgZmlsbD0iIzAwMDAwMCIgZm9udC1mYW1pbHk9InNhbnMtc2VyaWYiIGZvbnQtc2l6ZT0iMTQiIGxlbmd0aEFkanVzdD0ic3BhY2luZyIgdGV4dExlbmd0aD0iODQiIHg9Ijg1My4zODc4IiB5PSI3NDIuOTE5NyI+UiYjNDE3O2kgdiYjNzg1Mzt0IHBoJiM3ODQ5O208L3RleHQ+PC9nPjxnIGNsYXNzPSJlbnRpdHkiIGRhdGEtZW50aXR5PSJVQ19DaGVja1RpbWUiIGRhdGEtc291cmNlLWxpbmU9IjI1IiBkYXRhLXVpZD0iZW50MDAyMSIgaWQ9ImVudGl0eV9VQ19DaGVja1RpbWUiPjxlbGxpcHNlIGN4PSIyNDkuMjU0NyIgY3k9IjcyOC45NTA5IiBmaWxsPSIjRjFGMUYxIiByeD0iMTEwLjI1NDciIHJ5PSIyNC40NTA5IiBzdHlsZT0ic3Ryb2tlOiMxODE4MTg7c3Ryb2tlLXdpZHRoOjAuNTsiLz48dGV4dCBmaWxsPSIjMDAwMDAwIiBmb250LWZhbWlseT0ic2Fucy1zZXJpZiIgZm9udC1zaXplPSIxNCIgbGVuZ3RoQWRqdXN0PSJzcGFjaW5nIiB0ZXh0TGVuZ3RoPSIxODkiIHg9IjE1NC43NTQ3IiB5PSI3MzIuNjkzMSI+S2kmIzc4NzU7bSB0cmEgdGgmIzc5MDE7aSBnaWFuIHRyJiM3ODUzO24gJiMyNzM7JiM3ODQ1O3U8L3RleHQ+PC9nPjwhLS1lbnRpdHkgUGxheWVyLS0+PGcgY2xhc3M9ImVudGl0eSIgZGF0YS1lbnRpdHk9IlBsYXllciIgZGF0YS1zb3VyY2UtbGluZT0iNCIgZGF0YS11aWQ9ImVudDAwMDIiIGlkPSJlbnRpdHlfUGxheWVyIj48ZWxsaXBzZSBjeD0iNDEiIGN5PSIyNjEiIGZpbGw9IiNGMUYxRjEiIHJ4PSI4IiByeT0iOCIgc3R5bGU9InN0cm9rZTojMTgxODE4O3N0cm9rZS13aWR0aDowLjU7Ii8+PHBhdGggZD0iTTQxLDI2OSBMNDEsMjk2IE0yOCwyNzcgTDU0LDI3NyBNNDEsMjk2IEwyOCwzMTEgTTQxLDI5NiBMNTQsMzExIiBmaWxsPSJub25lIiBzdHlsZT0ic3Ryb2tlOiMxODE4MTg7c3Ryb2tlLXdpZHRoOjAuNTsiLz48dGV4dCBmaWxsPSIjMDAwMDAwIiBmb250LWZhbWlseT0ic2Fucy1zZXJpZiIgZm9udC1zaXplPSIxNCIgbGVuZ3RoQWRqdXN0PSJzcGFjaW5nIiB0ZXh0TGVuZ3RoPSI3MCIgeD0iNiIgeT0iMzI1LjczNDQiPk5nJiM0MzI7JiM3OTAxO2kgY2gmIzQxNztpPC90ZXh0PjwvZz48IS0tZW50aXR5IEhvc3QtLT48ZyBjbGFzcz0iZW50aXR5IiBkYXRhLWVudGl0eT0iSG9zdCIgZGF0YS1zb3VyY2UtbGluZT0iNSIgZGF0YS11aWQ9ImVudDAwMDMiIGlkPSJlbnRpdHlfSG9zdCI+PGVsbGlwc2UgY3g9IjQxIiBjeT0iNzI4IiBmaWxsPSIjRjFGMUYxIiByeD0iOCIgcnk9IjgiIHN0eWxlPSJzdHJva2U6IzE4MTgxODtzdHJva2Utd2lkdGg6MC41OyIvPjxwYXRoIGQ9Ik00MSw3MzYgTDQxLDc2MyBNMjgsNzQ0IEw1NCw3NDQgTTQxLDc2MyBMMjgsNzc4IE00MSw3NjMgTDU0LDc3OCIgZmlsbD0ibm9uZSIgc3R5bGU9InN0cm9rZTojMTgxODE4O3N0cm9rZS13aWR0aDowLjU7Ii8+PHRleHQgZmlsbD0iIzAwMDAwMCIgZm9udC1mYW1pbHk9InNhbnMtc2VyaWYiIGZvbnQtc2l6ZT0iMTQiIGxlbmd0aEFkanVzdD0ic3BhY2luZyIgdGV4dExlbmd0aD0iNjMiIHg9IjkuNSIgeT0iNzkyLjczNDQiPkNoJiM3OTExOyBwaCYjMjQyO25nPC90ZXh0PjwvZz48IS0tZW50aXR5IFN5c3RlbS0tPjxnIGNsYXNzPSJlbnRpdHkiIGRhdGEtZW50aXR5PSJTeXN0ZW0iIGRhdGEtc291cmNlLWxpbmU9IjYiIGRhdGEtdWlkPSJlbnQwMDA0IiBpZD0iZW50aXR5X1N5c3RlbSI+PGVsbGlwc2UgY3g9IjQxIiBjeT0iOTIwIiBmaWxsPSIjRjFGMUYxIiByeD0iOCIgcnk9IjgiIHN0eWxlPSJzdHJva2U6IzE4MTgxODtzdHJva2Utd2lkdGg6MC41OyIvPjxwYXRoIGQ9Ik00MSw5MjggTDQxLDk1NSBNMjgsOTM2IEw1NCw5MzYgTTQxLDk1NSBMMjgsOTcwIE00MSw5NTUgTDU0LDk3MCIgZmlsbD0ibm9uZSIgc3R5bGU9InN0cm9rZTojMTgxODE4O3N0cm9rZS13aWR0aDowLjU7Ii8+PHRleHQgZmlsbD0iIzAwMDAwMCIgZm9udC1mYW1pbHk9InNhbnMtc2VyaWYiIGZvbnQtc2l6ZT0iMTQiIGxlbmd0aEFkanVzdD0ic3BhY2luZyIgdGV4dExlbmd0aD0iNTYiIHg9IjEzIiB5PSI5ODQuNzM0NCI+SCYjNzg3OTsgdGgmIzc4ODk7bmc8L3RleHQ+PC9nPjwhLS1saW5rIEhvc3QgdG8gVUNfQ3JlYXRlUm9vbS0tPjxnIGNsYXNzPSJsaW5rIiBkYXRhLWVudGl0eS0xPSJIb3N0IiBkYXRhLWVudGl0eS0yPSJVQ19DcmVhdGVSb29tIiBkYXRhLXNvdXJjZS1saW5lPSIyOCIgZGF0YS11aWQ9ImxuazIyIiBpZD0ibGlua19Ib3N0X1VDX0NyZWF0ZVJvb20iPjxwYXRoIGQ9Ik03Mi43Myw3MjAuMzggQzg0Ljc1LDcwOC4xMiA5OS40MSw2OTUuNDQgMTE1LDY4NyBDMTQwLjQyLDY3My4yMyAxNjUuODU5Nyw2NjYuNTI0NSAxOTEuNzk5Nyw2NjIuMjU0NSIgZmlsbD0ibm9uZSIgaWQ9Ikhvc3QtdG8tVUNfQ3JlYXRlUm9vbSIgc3R5bGU9InN0cm9rZTojMTgxODE4O3N0cm9rZS13aWR0aDoxOyIvPjxwb2x5Z29uIGZpbGw9IiMxODE4MTgiIHBvaW50cz0iMTk3LjcyLDY2MS4yOCwxODguMTg5OCw2NTguNzk0OSwxOTIuNzg2NCw2NjIuMDkyMSwxODkuNDg5Miw2NjYuNjg4NywxOTcuNzIsNjYxLjI4IiBzdHlsZT0ic3Ryb2tlOiMxODE4MTg7c3Ryb2tlLXdpZHRoOjE7Ii8+PC9nPjwhLS1saW5rIEhvc3QgdG8gVUNfU3RhcnRNYXRjaC0tPjxnIGNsYXNzPSJsaW5rIiBkYXRhLWVudGl0eS0xPSJIb3N0IiBkYXRhLWVudGl0eS0yPSJVQ19TdGFydE1hdGNoIiBkYXRhLXNvdXJjZS1saW5lPSIyOSIgZGF0YS11aWQ9ImxuazIzIiBpZD0ibGlua19Ib3N0X1VDX1N0YXJ0TWF0Y2giPjxwYXRoIGQ9Ik03Mi41Myw3NjguNDEgQzEzMi4yNiw3ODguNjcgMjY2Ljg2LDgyNC4wOSAzNjAsNzcxIEM0MDYuMjIsNzQ0LjY1IDM3OS4zOSw3MDEuMTUgNDIxLDY2OCBDNDM1LjM2LDY1Ni41NiA0NDcuNzkzLDY1MC41NDQxIDQ2NS4xOTMsNjQ1LjMyNDEiIGZpbGw9Im5vbmUiIGlkPSJIb3N0LXRvLVVDX1N0YXJ0TWF0Y2giIHN0eWxlPSJzdHJva2U6IzE4MTgxODtzdHJva2Utd2lkdGg6MTsiLz48cG9seWdvbiBmaWxsPSIjMTgxODE4IiBwb2ludHM9IjQ3MC45NCw2NDMuNiw0NjEuMTcwMiw2NDIuMzU0OCw0NjYuMTUwOSw2NDUuMDM2Nyw0NjMuNDY5LDY1MC4wMTc0LDQ3MC45NCw2NDMuNiIgc3R5bGU9InN0cm9rZTojMTgxODE4O3N0cm9rZS13aWR0aDoxOyIvPjwvZz48IS0tbGluayBQbGF5ZXIgdG8gVUNfSm9pblJvb20tLT48ZyBjbGFzcz0ibGluayIgZGF0YS1lbnRpdHktMT0iUGxheWVyIiBkYXRhLWVudGl0eS0yPSJVQ19Kb2luUm9vbSIgZGF0YS1zb3VyY2UtbGluZT0iMzEiIGRhdGEtdWlkPSJsbmsyNCIgaWQ9ImxpbmtfUGxheWVyX1VDX0pvaW5Sb29tIj48cGF0aCBkPSJNNDEuMjIsMzI3LjUyIEM0Mi4xNSwzODQuOTMgNTIuNjgsNDk0LjM5IDExNSw1NTYgQzEzMi42NCw1NzMuNDMgMTUxLjkzOTgsNTgxLjM0NzIgMTc1LjY5OTgsNTg1Ljk1NzIiIGZpbGw9Im5vbmUiIGlkPSJQbGF5ZXItdG8tVUNfSm9pblJvb20iIHN0eWxlPSJzdHJva2U6IzE4MTgxODtzdHJva2Utd2lkdGg6MTsiLz48cG9seWdvbiBmaWxsPSIjMTgxODE4IiBwb2ludHM9IjE4MS41OSw1ODcuMSwxNzMuNTE2Nyw1ODEuNDU5LDE3Ni42ODE1LDU4Ni4xNDc2LDE3MS45OTI5LDU4OS4zMTI1LDE4MS41OSw1ODcuMSIgc3R5bGU9InN0cm9rZTojMTgxODE4O3N0cm9rZS13aWR0aDoxOyIvPjwvZz48IS0tbGluayBQbGF5ZXIgdG8gVUNfV2FpdFN0YXJ0LS0+PGcgY2xhc3M9ImxpbmsiIGRhdGEtZW50aXR5LTE9IlBsYXllciIgZGF0YS1lbnRpdHktMj0iVUNfV2FpdFN0YXJ0IiBkYXRhLXNvdXJjZS1saW5lPSIzMiIgZGF0YS11aWQ9ImxuazI1IiBpZD0ibGlua19QbGF5ZXJfVUNfV2FpdFN0YXJ0Ij48cGF0aCBkPSJNNTkuMTcsMzI3LjY0IEM3MC4wNCwzNDcuNzUgODUuODYsMzcxLjQ5IDEwNiwzODcgQzEyNy40MSw0MDMuNDggMTQ5LjAzNjksNDEyLjgyMDcgMTc0LjA2NjksNDIwLjA3MDciIGZpbGw9Im5vbmUiIGlkPSJQbGF5ZXItdG8tVUNfV2FpdFN0YXJ0IiBzdHlsZT0ic3Ryb2tlOiMxODE4MTg7c3Ryb2tlLXdpZHRoOjE7Ii8+PHBvbHlnb24gZmlsbD0iIzE4MTgxOCIgcG9pbnRzPSIxNzkuODMsNDIxLjc0LDE3Mi4yOTgyLDQxNS4zOTQsMTc1LjAyNzQsNDIwLjM0ODksMTcwLjA3MjUsNDIzLjA3ODEsMTc5LjgzLDQyMS43NCIgc3R5bGU9InN0cm9rZTojMTgxODE4O3N0cm9rZS13aWR0aDoxOyIvPjwvZz48IS0tbGluayBQbGF5ZXIgdG8gVUNfTW92ZS0tPjxnIGNsYXNzPSJsaW5rIiBkYXRhLWVudGl0eS0xPSJQbGF5ZXIiIGRhdGEtZW50aXR5LTI9IlVDX01vdmUiIGRhdGEtc291cmNlLWxpbmU9IjMzIiBkYXRhLXVpZD0ibG5rMjYiIGlkPSJsaW5rX1BsYXllcl9VQ19Nb3ZlIj48cGF0aCBkPSJNNzYuMjEsMjk4LjUxIEMyMDUuNzMsMzMwLjcxIDY2MS4yNDc0LDQ0My45OTE5IDgyNy45OTc0LDQ4NS40NjE5IiBmaWxsPSJub25lIiBpZD0iUGxheWVyLXRvLVVDX01vdmUiIHN0eWxlPSJzdHJva2U6IzE4MTgxODtzdHJva2Utd2lkdGg6MTsiLz48cG9seWdvbiBmaWxsPSIjMTgxODE4IiBwb2ludHM9IjgzMy44Miw0ODYuOTEsODI2LjA1MTQsNDgwLjg1NjEsODI4Ljk2NzgsNDg1LjcwMzMsODI0LjEyMDcsNDg4LjYxOTcsODMzLjgyLDQ4Ni45MSIgc3R5bGU9InN0cm9rZTojMTgxODE4O3N0cm9rZS13aWR0aDoxOyIvPjwvZz48IS0tbGluayBQbGF5ZXIgdG8gVUNfQ29sbGVjdFdlYXBvbnMtLT48ZyBjbGFzcz0ibGluayIgZGF0YS1lbnRpdHktMT0iUGxheWVyIiBkYXRhLWVudGl0eS0yPSJVQ19Db2xsZWN0V2VhcG9ucyIgZGF0YS1zb3VyY2UtbGluZT0iMzQiIGRhdGEtdWlkPSJsbmsyNyIgaWQ9ImxpbmtfUGxheWVyX1VDX0NvbGxlY3RXZWFwb25zIj48cGF0aCBkPSJNNzEuNTQsMjUyLjMyIEMxMDguMTQsMjEwLjI1IDE3NC43NSwxNDggMjQ4LjUsMTQ4IEMyNDguNSwxNDggMjQ4LjUsMTQ4IDg5Ni41LDE0OCBDMTAzNC4wOSwxNDggMTEyNS4zMTk1LDMyMy4yNDU5IDExNTEuNTI5NSwzODAuNDE1OSIgZmlsbD0ibm9uZSIgaWQ9IlBsYXllci10by1VQ19Db2xsZWN0V2VhcG9ucyIgc3R5bGU9InN0cm9rZTojMTgxODE4O3N0cm9rZS13aWR0aDoxOyIvPjxwb2x5Z29uIGZpbGw9IiMxODE4MTgiIHBvaW50cz0iMTE1NC4wMywzODUuODcsMTE1My45MTU0LDM3Ni4wMjE4LDExNTEuOTQ2MywzODEuMzI0OSwxMTQ2LjY0MzIsMzc5LjM1NTgsMTE1NC4wMywzODUuODciIHN0eWxlPSJzdHJva2U6IzE4MTgxODtzdHJva2Utd2lkdGg6MTsiLz48L2c+PCEtLWxpbmsgUGxheWVyIHRvIFVDX0NvbGxlY3RCdWZmcy0tPjxnIGNsYXNzPSJsaW5rIiBkYXRhLWVudGl0eS0xPSJQbGF5ZXIiIGRhdGEtZW50aXR5LTI9IlVDX0NvbGxlY3RCdWZmcyIgZGF0YS1zb3VyY2UtbGluZT0iMzUiIGRhdGEtdWlkPSJsbmsyOCIgaWQ9ImxpbmtfUGxheWVyX1VDX0NvbGxlY3RCdWZmcyI+PHBhdGggZD0iTTU1LjI5LDI1Mi4zOSBDNjcuMjcsMjIyLjY0IDg3LjI5LDE4MS41IDExNSwxNTMgQzE2Mi42LDEwNC4wNSAxODAuMjMsNzcgMjQ4LjUsNzcgQzI0OC41LDc3IDI0OC41LDc3IDExNjMuNSw3NyBDMTMxMi4xNSw3NyAxMzY5LjMwNiwzMDMuMTk4IDEzODMuOTA2LDM3NS43MjgiIGZpbGw9Im5vbmUiIGlkPSJQbGF5ZXItdG8tVUNfQ29sbGVjdEJ1ZmZzIiBzdHlsZT0ic3Ryb2tlOiMxODE4MTg7c3Ryb2tlLXdpZHRoOjE7Ii8+PHBvbHlnb24gZmlsbD0iIzE4MTgxOCIgcG9pbnRzPSIxMzg1LjA5LDM4MS42MSwxMzg3LjIzNTMsMzcxLjk5NzYsMTM4NC4xMDMzLDM3Ni43MDgzLDEzNzkuMzkyNiwzNzMuNTc2MywxMzg1LjA5LDM4MS42MSIgc3R5bGU9InN0cm9rZTojMTgxODE4O3N0cm9rZS13aWR0aDoxOyIvPjwvZz48IS0tbGluayBQbGF5ZXIgdG8gVUNfQXR0YWNrLS0+PGcgY2xhc3M9ImxpbmsiIGRhdGEtZW50aXR5LTE9IlBsYXllciIgZGF0YS1lbnRpdHktMj0iVUNfQXR0YWNrIiBkYXRhLXNvdXJjZS1saW5lPSIzNiIgZGF0YS11aWQ9ImxuazI5IiBpZD0ibGlua19QbGF5ZXJfVUNfQXR0YWNrIj48cGF0aCBkPSJNNDguMDIsMjUyLjI1IEM1Ni41NSwyMDguODcgNzUuNzEsMTM3LjQ0IDExNSw4OSBDMTU5LjAxLDM0Ljc0IDE3OC42Myw2IDI0OC41LDYgQzI0OC41LDYgMjQ4LjUsNiAxMzkxLDYgQzE1NTQuNjYsNiAxNjIxLjUyNDUsMjUzLjMxOTMgMTYzOC42NjQ1LDMzMS40NTkzIiBmaWxsPSJub25lIiBpZD0iUGxheWVyLXRvLVVDX0F0dGFjayIgc3R5bGU9InN0cm9rZTojMTgxODE4O3N0cm9rZS13aWR0aDoxOyIvPjxwb2x5Z29uIGZpbGw9IiMxODE4MTgiIHBvaW50cz0iMTYzOS45NSwzMzcuMzIsMTY0MS45Mjg4LDMyNy42NzIsMTYzOC44Nzg3LDMzMi40MzYxLDE2MzQuMTE0NiwzMjkuMzg2LDE2MzkuOTUsMzM3LjMyIiBzdHlsZT0ic3Ryb2tlOiMxODE4MTg7c3Ryb2tlLXdpZHRoOjE7Ii8+PC9nPjwhLS1saW5rIFBsYXllciB0byBVQ19LaWxsLS0+PGcgY2xhc3M9ImxpbmsiIGRhdGEtZW50aXR5LTE9IlBsYXllciIgZGF0YS1lbnRpdHktMj0iVUNfS2lsbCIgZGF0YS1zb3VyY2UtbGluZT0iMzciIGRhdGEtdWlkPSJsbmszMCIgaWQ9ImxpbmtfUGxheWVyX1VDX0tpbGwiPjxwYXRoIGQ9Ik03Ni4xMywyNzMuMzEgQzg1LjU4LDI2OS40OCA5NiwyNjUuOTUgMTA2LDI2NCBDMzc5LjA2LDIxMC42NSA0NjIuNjMsMTk0LjM5IDczMiwyNjQgQzc4Ny41OCwyNzguMzYgODM5LjYwMzQsMzEyLjY5NTcgODY5LjA4MzQsMzM0LjQ2NTciIGZpbGw9Im5vbmUiIGlkPSJQbGF5ZXItdG8tVUNfS2lsbCIgc3R5bGU9InN0cm9rZTojMTgxODE4O3N0cm9rZS13aWR0aDoxOyIvPjxwb2x5Z29uIGZpbGw9IiMxODE4MTgiIHBvaW50cz0iODczLjkxLDMzOC4wMyw4NjkuMDQ2MywzMjkuNDY1OSw4NjkuODg3OCwzMzUuMDU5OCw4NjQuMjkzOSwzMzUuOTAxMyw4NzMuOTEsMzM4LjAzIiBzdHlsZT0ic3Ryb2tlOiMxODE4MTg7c3Ryb2tlLXdpZHRoOjE7Ii8+PC9nPjwhLS1saW5rIFBsYXllciB0byBVQ19SZXNwYXduLS0+PGcgY2xhc3M9ImxpbmsiIGRhdGEtZW50aXR5LTE9IlBsYXllciIgZGF0YS1lbnRpdHktMj0iVUNfUmVzcGF3biIgZGF0YS1zb3VyY2UtbGluZT0iMzgiIGRhdGEtdWlkPSJsbmszMSIgaWQ9ImxpbmtfUGxheWVyX1VDX1Jlc3Bhd24iPjxwYXRoIGQ9Ik03Ni4xOSwyODguMDYgQzE5OS43MSwyODEuNjggNjIxLjI5LDI2NS41MyA3MzIsMzM1IEM3NTQuOTMsMzQ5LjM5IDc0MC43NCwzNzEuMjQgNzYyLDM4OCBDNzc4LjI2LDQwMC44MSA3OTIuODg3LDQwNy42NzUxIDgxMi43NjcsNDEzLjMwNTEiIGZpbGw9Im5vbmUiIGlkPSJQbGF5ZXItdG8tVUNfUmVzcGF3biIgc3R5bGU9InN0cm9rZTojMTgxODE4O3N0cm9rZS13aWR0aDoxOyIvPjxwb2x5Z29uIGZpbGw9IiMxODE4MTgiIHBvaW50cz0iODE4LjU0LDQxNC45NCw4MTAuOTcwNSw0MDguNjM5LDgxMy43MjkyLDQxMy41Nzc2LDgwOC43OTA2LDQxNi4zMzYzLDgxOC41NCw0MTQuOTQiIHN0eWxlPSJzdHJva2U6IzE4MTgxODtzdHJva2Utd2lkdGg6MTsiLz48L2c+PCEtLWxpbmsgUGxheWVyIHRvIFVDX1N1cnZpdmUtLT48ZyBjbGFzcz0ibGluayIgZGF0YS1lbnRpdHktMT0iUGxheWVyIiBkYXRhLWVudGl0eS0yPSJVQ19TdXJ2aXZlIiBkYXRhLXNvdXJjZS1saW5lPSIzOSIgZGF0YS11aWQ9ImxuazMyIiBpZD0ibGlua19QbGF5ZXJfVUNfU3Vydml2ZSI+PHBhdGggZD0iTTQ3LjI5LDMyNy42MyBDNTUuMDQsMzY4LjkgNzMuMzgsNDM0LjM4IDExNSw0NzMgQzEyOC41NCw0ODUuNTYgMTQwLjEzODIsNDkyLjM3NCAxNTcuNzI4Miw0OTguNTQ0IiBmaWxsPSJub25lIiBpZD0iUGxheWVyLXRvLVVDX1N1cnZpdmUiIHN0eWxlPSJzdHJva2U6IzE4MTgxODtzdHJva2Utd2lkdGg6MTsiLz48cG9seWdvbiBmaWxsPSIjMTgxODE4IiBwb2ludHM9IjE2My4zOSw1MDAuNTMsMTU2LjIyMTMsNDkzLjc3NjUsMTU4LjY3MTgsNDk4Ljg3NSwxNTMuNTczMyw1MDEuMzI1NiwxNjMuMzksNTAwLjUzIiBzdHlsZT0ic3Ryb2tlOiMxODE4MTg7c3Ryb2tlLXdpZHRoOjE7Ii8+PC9nPjwhLS1saW5rIFN5c3RlbSB0byBVQ19DYWxjU2NvcmUtLT48ZyBjbGFzcz0ibGluayIgZGF0YS1lbnRpdHktMT0iU3lzdGVtIiBkYXRhLWVudGl0eS0yPSJVQ19DYWxjU2NvcmUiIGRhdGEtc291cmNlLWxpbmU9IjQxIiBkYXRhLXVpZD0ibG5rMzMiIGlkPSJsaW5rX1N5c3RlbV9VQ19DYWxjU2NvcmUiPjxwYXRoIGQ9Ik02OS4yMiw5MzcuOSBDMTI0LjcsOTE1LjA1IDI1NC41NCw4NjAuMzkgMzYwLDgwNyBDNDA2LjQ5LDc4My40NyA0NTMuMTU2Myw3NTYuNDgyMyA0ODcuMzI2Myw3MzYuMTEyMyIgZmlsbD0ibm9uZSIgaWQ9IlN5c3RlbS10by1VQ19DYWxjU2NvcmUiIHN0eWxlPSJzdHJva2U6IzE4MTgxODtzdHJva2Utd2lkdGg6MTsiLz48cG9seWdvbiBmaWxsPSIjMTgxODE4IiBwb2ludHM9IjQ5Mi40OCw3MzMuMDQsNDgyLjcwMTIsNzM0LjIxMjcsNDg4LjE4NTIsNzM1LjYwMDMsNDg2Ljc5NzYsNzQxLjA4NDMsNDkyLjQ4LDczMy4wNCIgc3R5bGU9InN0cm9rZTojMTgxODE4O3N0cm9rZS13aWR0aDoxOyIvPjwvZz48IS0tbGluayBTeXN0ZW0gdG8gVUNfU2hvd1JhbmtpbmctLT48ZyBjbGFzcz0ibGluayIgZGF0YS1lbnRpdHktMT0iU3lzdGVtIiBkYXRhLWVudGl0eS0yPSJVQ19TaG93UmFua2luZyIgZGF0YS1zb3VyY2UtbGluZT0iNDIiIGRhdGEtdWlkPSJsbmszNCIgaWQ9ImxpbmtfU3lzdGVtX1VDX1Nob3dSYW5raW5nIj48cGF0aCBkPSJNNjkuMjEsOTUxLjQzIEMxMjUuMjEsOTU1LjUxIDI1Ni43OCw5NjAuMzIgMzYwLDkyNyBDNTQ1LjY1LDg2Ny4wNyA2MDEuNzYsODM5LjI0IDczMiw2OTQgQzc1MS45LDY3MS44IDczOS42Niw2NTMuNzUgNzYyLDYzNCBDNzc0LjI1LDYyMy4xNyA3ODMuNjQyOSw2MTcuMTI0OCA3OTguOTgyOSw2MTAuNjQ0OCIgZmlsbD0ibm9uZSIgaWQ9IlN5c3RlbS10by1VQ19TaG93UmFua2luZyIgc3R5bGU9InN0cm9rZTojMTgxODE4O3N0cm9rZS13aWR0aDoxOyIvPjxwb2x5Z29uIGZpbGw9IiMxODE4MTgiIHBvaW50cz0iODA0LjUxLDYwOC4zMSw3OTQuNjYyOCw2MDguMTI3NCw3OTkuOTA0MSw2MTAuMjU1Nyw3OTcuNzc1OSw2MTUuNDk2OSw4MDQuNTEsNjA4LjMxIiBzdHlsZT0ic3Ryb2tlOiMxODE4MTg7c3Ryb2tlLXdpZHRoOjE7Ii8+PC9nPjwhLS1saW5rIFN5c3RlbSB0byBVQ19Ecm9wSXRlbXMtLT48ZyBjbGFzcz0ibGluayIgZGF0YS1lbnRpdHktMT0iU3lzdGVtIiBkYXRhLWVudGl0eS0yPSJVQ19Ecm9wSXRlbXMiIGRhdGEtc291cmNlLWxpbmU9IjQzIiBkYXRhLXVpZD0ibG5rMzUiIGlkPSJsaW5rX1N5c3RlbV9VQ19Ecm9wSXRlbXMiPjxwYXRoIGQ9Ik01Ni4yMyw5ODYuODMgQzY2LjUxLDEwMDguMzcgODIuNzMsMTAzMy40NyAxMDYsMTA0NiBDMzUwLjk5LDExNzcuODcgNDkzLjY1LDExODkuNTIgNzMyLDEwNDYgQzg0My41OSw5NzguODEgODgxLjQ5MTYsODEyLjM0NDEgODkwLjk0MTYsNzYwLjEyNDEiIGZpbGw9Im5vbmUiIGlkPSJTeXN0ZW0tdG8tVUNfRHJvcEl0ZW1zIiBzdHlsZT0ic3Ryb2tlOiMxODE4MTg7c3Ryb2tlLXdpZHRoOjE7Ii8+PHBvbHlnb24gZmlsbD0iIzE4MTgxOCIgcG9pbnRzPSI4OTIuMDEsNzU0LjIyLDg4Ni40NzEzLDc2Mi4zNjM5LDg5MS4xMTk2LDc1OS4xNDAxLDg5NC4zNDM0LDc2My43ODg0LDg5Mi4wMSw3NTQuMjIiIHN0eWxlPSJzdHJva2U6IzE4MTgxODtzdHJva2Utd2lkdGg6MTsiLz48L2c+PCEtLWxpbmsgU3lzdGVtIHRvIFVDX0NoZWNrVGltZS0tPjxnIGNsYXNzPSJsaW5rIiBkYXRhLWVudGl0eS0xPSJTeXN0ZW0iIGRhdGEtZW50aXR5LTI9IlVDX0NoZWNrVGltZSIgZGF0YS1zb3VyY2UtbGluZT0iNDQiIGRhdGEtdWlkPSJsbmszNiIgaWQ9ImxpbmtfU3lzdGVtX1VDX0NoZWNrVGltZSI+PHBhdGggZD0iTTY3Ljg4LDkxMS4zNyBDODEuMjEsODkyLjg2IDk4LjE3LDg3MC41OSAxMTUsODUyIEMxNDguNTIsODE0Ljk3IDE4Ny4xMzc5LDc4MC41MjU0IDIxNS4xNjc5LDc1Ni43MDU0IiBmaWxsPSJub25lIiBpZD0iU3lzdGVtLXRvLVVDX0NoZWNrVGltZSIgc3R5bGU9InN0cm9rZTojMTgxODE4O3N0cm9rZS13aWR0aDoxOyIvPjxwb2x5Z29uIGZpbGw9IiMxODE4MTgiIHBvaW50cz0iMjE5Ljc0LDc1Mi44MiwyMTAuMjkxNiw3NTUuNiwyMTUuOTI5OSw3NTYuMDU3OCwyMTUuNDcyMSw3NjEuNjk2MSwyMTkuNzQsNzUyLjgyIiBzdHlsZT0ic3Ryb2tlOiMxODE4MTg7c3Ryb2tlLXdpZHRoOjE7Ii8+PC9nPjwhLS1saW5rIFN5c3RlbSB0byBVQ19SZXNwYXduQ291bnRkb3duLS0+PGcgY2xhc3M9ImxpbmsiIGRhdGEtZW50aXR5LTE9IlN5c3RlbSIgZGF0YS1lbnRpdHktMj0iVUNfUmVzcGF3bkNvdW50ZG93biIgZGF0YS1zb3VyY2UtbGluZT0iNDUiIGRhdGEtdWlkPSJsbmszNyIgaWQ9ImxpbmtfU3lzdGVtX1VDX1Jlc3Bhd25Db3VudGRvd24iPjxwYXRoIGQ9Ik02OS4xNiw5NjEuNiBDMTcxLjMyLDEwMDYuOSA1MzYuNTcsMTE0OS44NSA3MzIsOTc1IEM3NzYuODMsOTM0Ljg5IDcyMi44Nyw3NTEuNjggNzYyLDcwNiBDNzc1Ljk2LDY4OS43MSA3OTAuNjU5NSw2ODEuODc2NSA4MTEuMzk5NSw2NzYuNjg2NSIgZmlsbD0ibm9uZSIgaWQ9IlN5c3RlbS10by1VQ19SZXNwYXduQ291bnRkb3duIiBzdHlsZT0ic3Ryb2tlOiMxODE4MTg7c3Ryb2tlLXdpZHRoOjE7Ii8+PHBvbHlnb24gZmlsbD0iIzE4MTgxOCIgcG9pbnRzPSI4MTcuMjIsNjc1LjIzLDgwNy41MTgyLDY3My41MzQ1LDgxMi4zNjk2LDY3Ni40NDM4LDgwOS40NjAyLDY4MS4yOTUyLDgxNy4yMiw2NzUuMjMiIHN0eWxlPSJzdHJva2U6IzE4MTgxODtzdHJva2Utd2lkdGg6MTsiLz48L2c+PCEtLWxpbmsgVUNfQ3JlYXRlUm9vbSB0byBVQ19TdGFydE1hdGNoLS0+PGcgY2xhc3M9ImxpbmsiIGRhdGEtZW50aXR5LTE9IlVDX0NyZWF0ZVJvb20iIGRhdGEtZW50aXR5LTI9IlVDX1N0YXJ0TWF0Y2giIGRhdGEtc291cmNlLWxpbmU9IjQ3IiBkYXRhLXVpZD0ibG5rMzgiIGlkPSJsaW5rX1VDX0NyZWF0ZVJvb21fVUNfU3RhcnRNYXRjaCI+PHBhdGggZD0iTTMwMi44NCw2NTEuNyBDMzQ3LjI0LDY0OC4wNSA0MDUuMzQwMiw2NDMuMjgxOSA0NTQuMjEwMiw2MzkuMjYxOSIgZmlsbD0ibm9uZSIgaWQ9IlVDX0NyZWF0ZVJvb20tdG8tVUNfU3RhcnRNYXRjaCIgc3R5bGU9InN0cm9rZTojMTgxODE4O3N0cm9rZS13aWR0aDoxOyIvPjxwb2x5Z29uIGZpbGw9IiMxODE4MTgiIHBvaW50cz0iNDYwLjE5LDYzOC43Nyw0NTAuODkyNCw2MzUuNTIxMyw0NTUuMjA2OCw2MzkuMTc5OSw0NTEuNTQ4Miw2NDMuNDk0NCw0NjAuMTksNjM4Ljc3IiBzdHlsZT0ic3Ryb2tlOiMxODE4MTg7c3Ryb2tlLXdpZHRoOjE7Ii8+PC9nPjwhLS1saW5rIFVDX1N0YXJ0TWF0Y2ggdG8gVUNfTW92ZS0tPjxnIGNsYXNzPSJsaW5rIiBkYXRhLWVudGl0eS0xPSJVQ19TdGFydE1hdGNoIiBkYXRhLWVudGl0eS0yPSJVQ19Nb3ZlIiBkYXRhLXNvdXJjZS1saW5lPSI0OCIgZGF0YS11aWQ9ImxuazM5IiBpZD0ibGlua19VQ19TdGFydE1hdGNoX1VDX01vdmUiPjxwYXRoIGQ9Ik01NjIuOTUsNjE2Ljk2IEM1OTAuODIsNjAyLjY3IDYzMy40OCw1ODEuNzkgNjcyLDU2NyBDNzEwLjk4LDU1Mi4wMyA3MjEuOTMsNTUxLjc2IDc2Miw1NDAgQzc4Ni45MSw1MzIuNjkgODA4Ljc0MDcsNTI2LjM5NzcgODMyLjI3MDcsNTE5LjY3NzciIGZpbGw9Im5vbmUiIGlkPSJVQ19TdGFydE1hdGNoLXRvLVVDX01vdmUiIHN0eWxlPSJzdHJva2U6IzE4MTgxODtzdHJva2Utd2lkdGg6MTsiLz48cG9seWdvbiBmaWxsPSIjMTgxODE4IiBwb2ludHM9IjgzOC4wNCw1MTguMDMsODI4LjI4NzYsNTE2LjY1NTMsODMzLjIzMjIsNTE5LjQwMzEsODMwLjQ4NDUsNTI0LjM0NzcsODM4LjA0LDUxOC4wMyIgc3R5bGU9InN0cm9rZTojMTgxODE4O3N0cm9rZS13aWR0aDoxOyIvPjwvZz48IS0tbGluayBVQ19Nb3ZlIHRvIFVDX0NvbGxlY3RXZWFwb25zLS0+PGcgY2xhc3M9ImxpbmsiIGRhdGEtZW50aXR5LTE9IlVDX01vdmUiIGRhdGEtZW50aXR5LTI9IlVDX0NvbGxlY3RXZWFwb25zIiBkYXRhLXNvdXJjZS1saW5lPSI0OSIgZGF0YS11aWQ9ImxuazQwIiBpZD0ibGlua19VQ19Nb3ZlX1VDX0NvbGxlY3RXZWFwb25zIj48cGF0aCBkPSJNOTU2LjgyLDQ4Ni43OCBDOTc5LjY4LDQ4MC40OCAxMDA1Ljc4LDQ3Mi42MiAxMDI5LDQ2NCBDMTA2NS4wOSw0NTAuNjEgMTA5OS42NjEsNDM0LjI4ODQgMTEyNi4xNjEsNDIxLjA2ODQiIGZpbGw9Im5vbmUiIGlkPSJVQ19Nb3ZlLXRvLVVDX0NvbGxlY3RXZWFwb25zIiBzdHlsZT0ic3Ryb2tlOiMxODE4MTg7c3Ryb2tlLXdpZHRoOjE7Ii8+PHBvbHlnb24gZmlsbD0iIzE4MTgxOCIgcG9pbnRzPSIxMTMxLjUzLDQxOC4zOSwxMTIxLjY5MDksNDE4LjgyODMsMTEyNy4wNTU4LDQyMC42MjIsMTEyNS4yNjIxLDQyNS45ODcsMTEzMS41Myw0MTguMzkiIHN0eWxlPSJzdHJva2U6IzE4MTgxODtzdHJva2Utd2lkdGg6MTsiLz48L2c+PCEtLWxpbmsgVUNfQ29sbGVjdFdlYXBvbnMgdG8gVUNfQ29sbGVjdEJ1ZmZzLS0+PGcgY2xhc3M9ImxpbmsiIGRhdGEtZW50aXR5LTE9IlVDX0NvbGxlY3RXZWFwb25zIiBkYXRhLWVudGl0eS0yPSJVQ19Db2xsZWN0QnVmZnMiIGRhdGEtc291cmNlLWxpbmU9IjUwIiBkYXRhLXVpZD0ibG5rNDEiIGlkPSJsaW5rX1VDX0NvbGxlY3RXZWFwb25zX1VDX0NvbGxlY3RCdWZmcyI+PHBhdGggZD0iTTEyMzUuMTYsNDAzIEMxMjU0LjM4LDQwMyAxMjY5LjQ0LDQwMyAxMjg5LjY0LDQwMyIgZmlsbD0ibm9uZSIgaWQ9IlVDX0NvbGxlY3RXZWFwb25zLXRvLVVDX0NvbGxlY3RCdWZmcyIgc3R5bGU9InN0cm9rZTojMTgxODE4O3N0cm9rZS13aWR0aDoxOyIvPjxwb2x5Z29uIGZpbGw9IiMxODE4MTgiIHBvaW50cz0iMTI5NS42NCw0MDMsMTI4Ni42NCwzOTksMTI5MC42NCw0MDMsMTI4Ni42NCw0MDcsMTI5NS42NCw0MDMiIHN0eWxlPSJzdHJva2U6IzE4MTgxODtzdHJva2Utd2lkdGg6MTsiLz48L2c+PCEtLWxpbmsgVUNfQ29sbGVjdEJ1ZmZzIHRvIFVDX0F0dGFjay0tPjxnIGNsYXNzPSJsaW5rIiBkYXRhLWVudGl0eS0xPSJVQ19Db2xsZWN0QnVmZnMiIGRhdGEtZW50aXR5LTI9IlVDX0F0dGFjayIgZGF0YS1zb3VyY2UtbGluZT0iNTEiIGRhdGEtdWlkPSJsbms0MiIgaWQ9ImxpbmtfVUNfQ29sbGVjdEJ1ZmZzX1VDX0F0dGFjayI+PHBhdGggZD0iTTE0NjUuMzUsMzkwLjM5IEMxNDk2LjYxLDM4NS4wOCAxNTI3LjEyNDYsMzc5LjkxNDIgMTU1OC45MzQ2LDM3NC41MTQyIiBmaWxsPSJub25lIiBpZD0iVUNfQ29sbGVjdEJ1ZmZzLXRvLVVDX0F0dGFjayIgc3R5bGU9InN0cm9rZTojMTgxODE4O3N0cm9rZS13aWR0aDoxOyIvPjxwb2x5Z29uIGZpbGw9IiMxODE4MTgiIHBvaW50cz0iMTU2NC44NSwzNzMuNTEsMTU1NS4zMDc1LDM3MS4wNzI3LDE1NTkuOTIwNSwzNzQuMzQ2OCwxNTU2LjY0NjQsMzc4Ljk1OTksMTU2NC44NSwzNzMuNTEiIHN0eWxlPSJzdHJva2U6IzE4MTgxODtzdHJva2Utd2lkdGg6MTsiLz48L2c+PCEtLWxpbmsgVUNfQXR0YWNrIHRvIFVDX0tpbGwtLT48ZyBjbGFzcz0ibGluayIgZGF0YS1lbnRpdHktMT0iVUNfQXR0YWNrIiBkYXRhLWVudGl0eS0yPSJVQ19LaWxsIiBkYXRhLXNvdXJjZS1saW5lPSI1MiIgZGF0YS11aWQ9ImxuazQzIiBpZD0ibGlua19VQ19BdHRhY2tfVUNfS2lsbCI+PHBhdGggZD0iTTE1NDUuMDYsMzU5LjIgQzEzOTAuODksMzU3Ljk2IDExMDQuMDk5OCwzNTUuNjY4MyA5NzEuMTk5OCwzNTQuNTk4MyIgZmlsbD0ibm9uZSIgaWQ9IlVDX0F0dGFjay10by1VQ19LaWxsIiBzdHlsZT0ic3Ryb2tlOiMxODE4MTg7c3Ryb2tlLXdpZHRoOjE7Ii8+PHBvbHlnb24gZmlsbD0iIzE4MTgxOCIgcG9pbnRzPSI5NjUuMiwzNTQuNTUsOTc0LjE2NzUsMzU4LjYyMjMsOTcwLjE5OTgsMzU0LjU5MDMsOTc0LjIzMTksMzUwLjYyMjYsOTY1LjIsMzU0LjU1IiBzdHlsZT0ic3Ryb2tlOiMxODE4MTg7c3Ryb2tlLXdpZHRoOjE7Ii8+PC9nPjwhLS1saW5rIFVDX0tpbGwgdG8gVUNfRHJvcEl0ZW1zLS0+PGcgY2xhc3M9ImxpbmsiIGRhdGEtZW50aXR5LTE9IlVDX0tpbGwiIGRhdGEtZW50aXR5LTI9IlVDX0Ryb3BJdGVtcyIgZGF0YS1zb3VyY2UtbGluZT0iNTUiIGRhdGEtdWlkPSJsbms0NCIgaWQ9ImxpbmtfVUNfS2lsbF9VQ19Ecm9wSXRlbXMiPjxwYXRoIGQ9Ik04MjcuMSwzNTcuMDYgQzgwMy41OSwzNjEuNSA3NzguOTUsMzcwLjQ2IDc2MiwzODggQzYyNy44NSw1MjYuOCA2OTguMDksNjMzLjk2IDcwNyw2NTQuNSBDNzI4LjQ3LDcwNC4wMiA3ODMuOTQ1Niw3MjMuNDUzMSA4MzAuODc1Niw3MzEuOTMzMSIgZmlsbD0ibm9uZSIgaWQ9IlVDX0tpbGwtdG8tVUNfRHJvcEl0ZW1zIiBzdHlsZT0ic3Ryb2tlOiMxODE4MTg7c3Ryb2tlLXdpZHRoOjE7c3Ryb2tlLWRhc2hhcnJheTo3LjAsNy4wOyIvPjxwb2x5Z29uIGZpbGw9IiMxODE4MTgiIHBvaW50cz0iODM2Ljc4LDczMyw4MjguNjM0Nyw3MjcuNDYzNCw4MzEuODU5Nyw3MzIuMTEwOSw4MjcuMjEyMiw3MzUuMzM1OSw4MzYuNzgsNzMzIiBzdHlsZT0ic3Ryb2tlOiMxODE4MTg7c3Ryb2tlLXdpZHRoOjE7Ii8+PHRleHQgZmlsbD0iIzAwMDAwMCIgZm9udC1mYW1pbHk9InNhbnMtc2VyaWYiIGZvbnQtc2l6ZT0iMTMiIGxlbmd0aEFkanVzdD0ic3BhY2luZyIgdGV4dExlbmd0aD0iNTIiIHg9IjY3NiIgeT0iNjUyLjc4OTEiPiYjMTcxO2V4dGVuZCYjMTg3OzwvdGV4dD48L2c+PCEtLWxpbmsgVUNfS2lsbCB0byBVQ19SZXNwYXduQ291bnRkb3duLS0+PGcgY2xhc3M9ImxpbmsiIGRhdGEtZW50aXR5LTE9IlVDX0tpbGwiIGRhdGEtZW50aXR5LTI9IlVDX1Jlc3Bhd25Db3VudGRvd24iIGRhdGEtc291cmNlLWxpbmU9IjU2IiBkYXRhLXVpZD0ibG5rNDUiIGlkPSJsaW5rX1VDX0tpbGxfVUNfUmVzcGF3bkNvdW50ZG93biI+PHBhdGggZD0iTTgyNy43NSwzNTcuNzIgQzgwNC4zMiwzNjIuMjIgNzc5LjU2LDM3MS4wNiA3NjIsMzg4IEM2ODAuMTgsNDY2LjkzIDY5OS4yOCw1NzQuNzcgNzA3LDU5MC41IEM3MjcuOSw2MzMuMDYgNzcyLjM5MDMsNjUxLjYwNjMgODE1LjgxMDMsNjYwLjgwNjMiIGZpbGw9Im5vbmUiIGlkPSJVQ19LaWxsLXRvLVVDX1Jlc3Bhd25Db3VudGRvd24iIHN0eWxlPSJzdHJva2U6IzE4MTgxODtzdHJva2Utd2lkdGg6MTtzdHJva2UtZGFzaGFycmF5OjcuMCw3LjA7Ii8+PHBvbHlnb24gZmlsbD0iIzE4MTgxOCIgcG9pbnRzPSI4MjEuNjgsNjYyLjA1LDgxMy43MDQ2LDY1Ni4yNzEzLDgxNi43ODg2LDY2MS4wMTM2LDgxMi4wNDYzLDY2NC4wOTc2LDgyMS42OCw2NjIuMDUiIHN0eWxlPSJzdHJva2U6IzE4MTgxODtzdHJva2Utd2lkdGg6MTsiLz48dGV4dCBmaWxsPSIjMDAwMDAwIiBmb250LWZhbWlseT0ic2Fucy1zZXJpZiIgZm9udC1zaXplPSIxMyIgbGVuZ3RoQWRqdXN0PSJzcGFjaW5nIiB0ZXh0TGVuZ3RoPSI1MiIgeD0iNjc2IiB5PSI1ODguNzg5MSI+JiMxNzE7ZXh0ZW5kJiMxODc7PC90ZXh0PjwvZz48IS0tbGluayBVQ19SZXNwYXduQ291bnRkb3duIHRvIFVDX1Jlc3Bhd24tLT48ZyBjbGFzcz0ibGluayIgZGF0YS1lbnRpdHktMT0iVUNfUmVzcGF3bkNvdW50ZG93biIgZGF0YS1lbnRpdHktMj0iVUNfUmVzcGF3biIgZGF0YS1zb3VyY2UtbGluZT0iNTciIGRhdGEtdWlkPSJsbms0NiIgaWQ9ImxpbmtfVUNfUmVzcGF3bkNvdW50ZG93bl9VQ19SZXNwYXduIj48cGF0aCBkPSJNODE0Ljc2LDY3Mi41OCBDNzc0LjkyLDY2OS4xNyA3MjkuOTUsNjU3LjM0IDcwNCw2MjQuNSBDNjk1LjA4LDYxMy4yMSA2ODguODMsNTMwLjA2IDc2Miw0NjQgQzc3Ny4wMiw0NTAuNDMgNzkwLjc5NjksNDQzLjM0OTQgODEwLjI2NjksNDM3LjcwOTQiIGZpbGw9Im5vbmUiIGlkPSJVQ19SZXNwYXduQ291bnRkb3duLXRvLVVDX1Jlc3Bhd24iIHN0eWxlPSJzdHJva2U6IzE4MTgxODtzdHJva2Utd2lkdGg6MTtzdHJva2UtZGFzaGFycmF5OjcuMCw3LjA7Ii8+PHBvbHlnb24gZmlsbD0iIzE4MTgxOCIgcG9pbnRzPSI4MTYuMDMsNDM2LjA0LDgwNi4yNzI0LDQzNC43MDIxLDgxMS4yMjc0LDQzNy40MzEyLDgwOC40OTgzLDQ0Mi4zODYyLDgxNi4wMyw0MzYuMDQiIHN0eWxlPSJzdHJva2U6IzE4MTgxODtzdHJva2Utd2lkdGg6MTsiLz48dGV4dCBmaWxsPSIjMDAwMDAwIiBmb250LWZhbWlseT0ic2Fucy1zZXJpZiIgZm9udC1zaXplPSIxMyIgbGVuZ3RoQWRqdXN0PSJzcGFjaW5nIiB0ZXh0TGVuZ3RoPSI1OC41IiB4PSI2NzMiIHk9IjYyMi43ODkxIj4mIzE3MTtpbmNsdWRlJiMxODc7PC90ZXh0PjwvZz48IS0tbGluayBVQ19SZXNwYXduIHRvIFVDX01vdmUtLT48ZyBjbGFzcz0ibGluayIgZGF0YS1lbnRpdHktMT0iVUNfUmVzcGF3biIgZGF0YS1lbnRpdHktMj0iVUNfTW92ZSIgZGF0YS1zb3VyY2UtbGluZT0iNTkiIGRhdGEtdWlkPSJsbms0NyIgaWQ9ImxpbmtfVUNfUmVzcGF3bl9VQ19Nb3ZlIj48cGF0aCBkPSJNODk1LjUsNDQ2LjcxIEM4OTUuNSw0NTguMjEgODk1LjUsNDYzLjcxIDg5NS41LDQ3NS4yMiIgZmlsbD0ibm9uZSIgaWQ9IlVDX1Jlc3Bhd24tdG8tVUNfTW92ZSIgc3R5bGU9InN0cm9rZTojMTgxODE4O3N0cm9rZS13aWR0aDoxO3N0cm9rZS1kYXNoYXJyYXk6Ny4wLDcuMDsiLz48cG9seWdvbiBmaWxsPSIjMTgxODE4IiBwb2ludHM9Ijg5NS41LDQ4MS4yMiw4OTkuNSw0NzIuMjIsODk1LjUsNDc2LjIyLDg5MS41LDQ3Mi4yMiw4OTUuNSw0ODEuMjIiIHN0eWxlPSJzdHJva2U6IzE4MTgxODtzdHJva2Utd2lkdGg6MTsiLz48L2c+PCEtLWxpbmsgVUNfU3Vydml2ZSB0byBVQ19DYWxjU2NvcmUtLT48ZyBjbGFzcz0ibGluayIgZGF0YS1lbnRpdHktMT0iVUNfU3Vydml2ZSIgZGF0YS1lbnRpdHktMj0iVUNfQ2FsY1Njb3JlIiBkYXRhLXNvdXJjZS1saW5lPSI2MSIgZGF0YS11aWQ9ImxuazQ4IiBpZD0ibGlua19VQ19TdXJ2aXZlX1VDX0NhbGNTY29yZSI+PHBhdGggZD0iTTMxOS43Nyw1MzMuMTIgQzMzNC4xNCw1MzkuMSAzNDguNDIsNTQ2Ljg5IDM2MCw1NTcgQzQwMi40Miw1OTQgMzc4LjU4LDYzMSA0MjEsNjY4IEM0MzIuMiw2NzcuNzcgNDQwLjM5NjcsNjgzLjAzNjIgNDU0LjI3NjcsNjg4LjkyNjIiIGZpbGw9Im5vbmUiIGlkPSJVQ19TdXJ2aXZlLXRvLVVDX0NhbGNTY29yZSIgc3R5bGU9InN0cm9rZTojMTgxODE4O3N0cm9rZS13aWR0aDoxOyIvPjxwb2x5Z29uIGZpbGw9IiMxODE4MTgiIHBvaW50cz0iNDU5LjgsNjkxLjI3LDQ1My4wNzc2LDY4NC4wNzIxLDQ1NS4xOTczLDY4OS4zMTY4LDQ0OS45NTI1LDY5MS40MzY1LDQ1OS44LDY5MS4yNyIgc3R5bGU9InN0cm9rZTojMTgxODE4O3N0cm9rZS13aWR0aDoxOyIvPjwvZz48IS0tbGluayBVQ19DYWxjU2NvcmUgdG8gVUNfU2hvd1JhbmtpbmctLT48ZyBjbGFzcz0ibGluayIgZGF0YS1lbnRpdHktMT0iVUNfQ2FsY1Njb3JlIiBkYXRhLWVudGl0eS0yPSJVQ19TaG93UmFua2luZyIgZGF0YS1zb3VyY2UtbGluZT0iNjIiIGRhdGEtdWlkPSJsbms0OSIgaWQ9ImxpbmtfVUNfQ2FsY1Njb3JlX1VDX1Nob3dSYW5raW5nIj48cGF0aCBkPSJNNjI2Ljk4LDY5Ny41OCBDNjYxLjQ1LDY5MC40NCA2OTkuODQsNjc5LjMgNzMyLDY2MiBDNzQ4LjA2LDY1My4zNiA3NDYuNDEsNjQzLjQ3IDc2Miw2MzQgQzc3Ny43NSw2MjQuNDMgNzkwLjEwODEsNjE4LjUxNjIgODA3LjY0ODEsNjExLjk3NjIiIGZpbGw9Im5vbmUiIGlkPSJVQ19DYWxjU2NvcmUtdG8tVUNfU2hvd1JhbmtpbmciIHN0eWxlPSJzdHJva2U6IzE4MTgxODtzdHJva2Utd2lkdGg6MTsiLz48cG9seWdvbiBmaWxsPSIjMTgxODE4IiBwb2ludHM9IjgxMy4yNyw2MDkuODgsODAzLjQzOTcsNjA5LjI3NjQsODA4LjU4NTEsNjExLjYyNjgsODA2LjIzNDYsNjE2Ljc3MjIsODEzLjI3LDYwOS44OCIgc3R5bGU9InN0cm9rZTojMTgxODE4O3N0cm9rZS13aWR0aDoxOyIvPjwvZz48IS0tU1JDPVtUTEoxUmpEMDRCdGxMdW53QTcwZTd1MmdJWkd6MUFlWWJCSmc0SXRFcmJ4NXRaTnNFY3M1RUEwVUU3Mlh3ZWEzR2I1TExLTUFHQzM5RmxKV3FsX09GczZ5Wlh0bDlmTVlmWmlwUnNWc2xKUzlzUDQyOUk3WFZnMVduMUZjQUl1NUlTVFNuM0lYNFNKSzZyRVYzVExmb0ExQUstNjdaMTNnQVBkMHNZbF9fZlNrbGQ3bVdsaWZObUVRbWtrR2RoQWFBVVc1a2hZNkUyWF8yei1hLXA5TEpSQWxZcS1XaUU5eWRYb1VmZWY1WEJJRHgxaG1RU0pXaFN2XzJhWkI3MENZdUJodWM4NW12ZFhGMEYySmZTb1pBVHdvaF9FZng4dm5xN2xKSW5YTFIyMWJyQXRTbmppTHQ5dGhfM2UzYlVYeTlpcGZBY2ptR3FLSmpLVUw1cldUMGNKQnZ6SGZ5YjlvdVJRdS13QUJvc2hLMUpOY0tLdFIxZGo4a0pCRGtrMlQyZllUd2s5Q3U3WmIzcjUxQnlzQ25LTTN0OUNKUFctTkxIcGNpbldjX3N2Vzc5SXBiV0tQWGlaczhRRW41RWIzOEZvaFM1SVR0cUptRFppd1NqM1I2NGVUbGd5NFVFTlZJWURCY3dodnI2bG1wdkwyV3RNSFZMR0FWNXJTVVVQOXZ6bzhWenEwVGRhT0VicGNqejZ5bndLN003bDE4VUtZUTEwM2JpUnFNRkhhOWpIODdXa3hNTENEQVNybURBREFWZ2lTUzFTcGhBc09iZHpnbE11NTY4WVA0ci05N1gyakxSOWFtWHFmb1hic0t4QVNMZmdYVXl5WUlGNUFNOFVua1VQVFhkZ3NfREJHNnRlb2lReGV5cmZ6eEZVdkxqLTc0eUo2ckkxSkZBcDNmN2hJWTJ2TzYwUm9VNDA1eGhOVmxNZkdBVDlMandkVklNSnkwZFZIS2RNdDdiU2JqRmxPckxsSTJ2V3R0a1NIOG55OGdQT1VEWlFzZEJOaFhaalJIVWdWYTJSSmhmMFROY283N0pWVWpxRUVuclNjUW1sUmdSYXh4UTFuZTFyZ042OTc2XzU5X1FsTXpjaWJqVURUWFVwQ0dXbGRmZlBZRXh4YVU2QkhsZTlud3NHSEVWei1XQ2NibzRmSWRSRjNSbGtWSEoxdjEwVGVFVUV4STFWVjhUNzVMeEpzT3RRWWMxV3o4VkQyVTZmSjFDeldTeEVrc1Rmb1liblViY2dOMllvU0FVVjIyeENIbV9lRU81dmQyMkNCdlBTTHhudk13RnVWXS0tPjwvZz48L3N2Zz4=;" vertex="1" parent="1">
            <mxGeometry x="-720" y="20" width="1768" height="1196" as="geometry" />
          </mxCell>
        </UserObject>
        <UserObject label="" plantUmlData="{&#xa;  &quot;data&quot;: &quot;@startuml\nleft to right direction\n\nactor \&quot;Chủ phòng\&quot; as Host\nactor \&quot;Người chơi\&quot; as Player\n\nrectangle \&quot;Phòng chờ (Lobby)\&quot; {\n  usecase \&quot;Tạo phòng\&quot; as UC_CreateRoom\n  usecase \&quot;Tham gia phòng\&quot; as UC_JoinRoom\n  usecase \&quot;Đợi chủ phòng bắt đầu\&quot; as UC_WaitStart\n  usecase \&quot;Di chuyển trong sảnh chờ\&quot; as UC_LobbyMove\n  usecase \&quot;Bắt đầu trận đấu\&quot; as UC_StartMatch\n}\n\nHost --&gt; UC_CreateRoom\nPlayer --&gt; UC_JoinRoom\nPlayer --&gt; UC_WaitStart\nPlayer --&gt; UC_LobbyMove\nHost --&gt; UC_StartMatch\n\nUC_CreateRoom --&gt; UC_StartMatch\n\n@enduml\n&quot;,&#xa;  &quot;format&quot;: &quot;svg&quot;&#xa;}" id="wpfcwqCC3rGuq9T8k83W-3">
          <mxCell style="shape=image;noLabel=1;verticalAlign=top;aspect=fixed;imageAspect=0;image=data:image/svg+xml,PHN2ZyB4bWxucz0iaHR0cDovL3d3dy53My5vcmcvMjAwMC9zdmciIHhtbG5zOnhsaW5rPSJodHRwOi8vd3d3LnczLm9yZy8xOTk5L3hsaW5rIiBjb250ZW50U3R5bGVUeXBlPSJ0ZXh0L2NzcyIgZGF0YS1kaWFncmFtLXR5cGU9IkRFU0NSSVBUSU9OIiBoZWlnaHQ9IjM1NXB4IiBwcmVzZXJ2ZUFzcGVjdFJhdGlvPSJub25lIiBzdHlsZT0id2lkdGg6NTcwcHg7aGVpZ2h0OjM1NXB4O2JhY2tncm91bmQ6I0ZGRkZGRjsiIHZlcnNpb249IjEuMSIgdmlld0JveD0iMCAwIDU3MCAzNTUiIHdpZHRoPSI1NzBweCIgem9vbUFuZFBhbj0ibWFnbmlmeSI+PGRlZnMvPjxnPjwhLS1jbHVzdGVyIFBoP25nIGNoPyAoTG9iYnkpLS0+PGcgY2xhc3M9ImNsdXN0ZXIiIGRhdGEtZW50aXR5PSJQaCYjMjQyO25nIGNoJiM3OTAxOyAoTG9iYnkpIiBkYXRhLXNvdXJjZS1saW5lPSI2IiBkYXRhLXVpZD0iZW50MDAwNCIgaWQ9ImNsdXN0ZXJfUGgmIzI0MjtuZyBjaCYjNzkwMTsgKExvYmJ5KSI+PHJlY3QgZmlsbD0ibm9uZSIgaGVpZ2h0PSIzMDEiIHJ4PSIyLjUiIHJ5PSIyLjUiIHN0eWxlPSJzdHJva2U6IzE4MTgxODtzdHJva2Utd2lkdGg6MTsiIHdpZHRoPSI0NDQiIHg9IjEyMCIgeT0iNyIvPjx0ZXh0IGZpbGw9IiMwMDAwMDAiIGZvbnQtZmFtaWx5PSJzYW5zLXNlcmlmIiBmb250LXNpemU9IjE0IiBmb250LXdlaWdodD0iYm9sZCIgbGVuZ3RoQWRqdXN0PSJzcGFjaW5nIiB0ZXh0TGVuZ3RoPSIxMTkiIHg9IjI4Mi41IiB5PSIyMi4yMzQ0Ij5QaCYjMjQyO25nIGNoJiM3OTAxOyAoTG9iYnkpPC90ZXh0PjwvZz48ZyBjbGFzcz0iZW50aXR5IiBkYXRhLWVudGl0eT0iVUNfQ3JlYXRlUm9vbSIgZGF0YS1zb3VyY2UtbGluZT0iNyIgZGF0YS11aWQ9ImVudDAwMDUiIGlkPSJlbnRpdHlfVUNfQ3JlYXRlUm9vbSI+PGVsbGlwc2UgY3g9IjIzNi41MDU0IiBjeT0iMjc4LjEwMTEiIGZpbGw9IiNGMUYxRjEiIHJ4PSI1Ni4wMDU0IiByeT0iMTMuNjAxMSIgc3R5bGU9InN0cm9rZTojMTgxODE4O3N0cm9rZS13aWR0aDowLjU7Ii8+PHRleHQgZmlsbD0iIzAwMDAwMCIgZm9udC1mYW1pbHk9InNhbnMtc2VyaWYiIGZvbnQtc2l6ZT0iMTQiIGxlbmd0aEFkanVzdD0ic3BhY2luZyIgdGV4dExlbmd0aD0iNjMiIHg9IjIwNS4wMDU0IiB5PSIyODEuODQzMyI+VCYjNzg0MTtvIHBoJiMyNDI7bmc8L3RleHQ+PC9nPjxnIGNsYXNzPSJlbnRpdHkiIGRhdGEtZW50aXR5PSJVQ19Kb2luUm9vbSIgZGF0YS1zb3VyY2UtbGluZT0iOCIgZGF0YS11aWQ9ImVudDAwMDYiIGlkPSJlbnRpdHlfVUNfSm9pblJvb20iPjxlbGxpcHNlIGN4PSIyMzYuNTQ1NiIgY3k9IjEzNi44MDkxIiBmaWxsPSIjRjFGMUYxIiByeD0iNjkuNTQ1NiIgcnk9IjE2LjMwOTEiIHN0eWxlPSJzdHJva2U6IzE4MTgxODtzdHJva2Utd2lkdGg6MC41OyIvPjx0ZXh0IGZpbGw9IiMwMDAwMDAiIGZvbnQtZmFtaWx5PSJzYW5zLXNlcmlmIiBmb250LXNpemU9IjE0IiBsZW5ndGhBZGp1c3Q9InNwYWNpbmciIHRleHRMZW5ndGg9Ijk4IiB4PSIxODcuNTQ1NiIgeT0iMTQwLjU1MTMiPlRoYW0gZ2lhIHBoJiMyNDI7bmc8L3RleHQ+PC9nPjxnIGNsYXNzPSJlbnRpdHkiIGRhdGEtZW50aXR5PSJVQ19XYWl0U3RhcnQiIGRhdGEtc291cmNlLWxpbmU9IjkiIGRhdGEtdWlkPSJlbnQwMDA3IiBpZD0iZW50aXR5X1VDX1dhaXRTdGFydCI+PGVsbGlwc2UgY3g9IjIzNi4zODM5IiBjeT0iMjA5LjA3NjgiIGZpbGw9IiNGMUYxRjEiIHJ4PSI5MC44ODM5IiByeT0iMjAuNTc2OCIgc3R5bGU9InN0cm9rZTojMTgxODE4O3N0cm9rZS13aWR0aDowLjU7Ii8+PHRleHQgZmlsbD0iIzAwMDAwMCIgZm9udC1mYW1pbHk9InNhbnMtc2VyaWYiIGZvbnQtc2l6ZT0iMTQiIGxlbmd0aEFkanVzdD0ic3BhY2luZyIgdGV4dExlbmd0aD0iMTQ3IiB4PSIxNjIuODgzOSIgeT0iMjEyLjgxOSI+JiMyNzI7JiM3OTA3O2kgY2gmIzc5MTE7IHBoJiMyNDI7bmcgYiYjNzg1NTt0ICYjMjczOyYjNzg0Nzt1PC90ZXh0PjwvZz48ZyBjbGFzcz0iZW50aXR5IiBkYXRhLWVudGl0eT0iVUNfTG9iYnlNb3ZlIiBkYXRhLXNvdXJjZS1saW5lPSIxMCIgZGF0YS11aWQ9ImVudDAwMDgiIGlkPSJlbnRpdHlfVUNfTG9iYnlNb3ZlIj48ZWxsaXBzZSBjeD0iMjM2LjQ4NSIgY3k9IjYyLjk5NyIgZmlsbD0iI0YxRjFGMSIgcng9IjEwMC40ODUiIHJ5PSIyMi40OTciIHN0eWxlPSJzdHJva2U6IzE4MTgxODtzdHJva2Utd2lkdGg6MC41OyIvPjx0ZXh0IGZpbGw9IiMwMDAwMDAiIGZvbnQtZmFtaWx5PSJzYW5zLXNlcmlmIiBmb250LXNpemU9IjE0IiBsZW5ndGhBZGp1c3Q9InNwYWNpbmciIHRleHRMZW5ndGg9IjE2OCIgeD0iMTUyLjQ4NSIgeT0iNjYuNzM5MiI+RGkgY2h1eSYjNzg3NTtuIHRyb25nIHMmIzc4NDM7bmggY2gmIzc5MDE7PC90ZXh0PjwvZz48ZyBjbGFzcz0iZW50aXR5IiBkYXRhLWVudGl0eT0iVUNfU3RhcnRNYXRjaCIgZGF0YS1zb3VyY2UtbGluZT0iMTEiIGRhdGEtdWlkPSJlbnQwMDA5IiBpZD0iZW50aXR5X1VDX1N0YXJ0TWF0Y2giPjxlbGxpcHNlIGN4PSI0NzIuNDM4NCIgY3k9IjI3My45ODc3IiBmaWxsPSIjRjFGMUYxIiByeD0iNzUuNDM4NCIgcnk9IjE3LjQ4NzciIHN0eWxlPSJzdHJva2U6IzE4MTgxODtzdHJva2Utd2lkdGg6MC41OyIvPjx0ZXh0IGZpbGw9IiMwMDAwMDAiIGZvbnQtZmFtaWx5PSJzYW5zLXNlcmlmIiBmb250LXNpemU9IjE0IiBsZW5ndGhBZGp1c3Q9InNwYWNpbmciIHRleHRMZW5ndGg9IjExMiIgeD0iNDE2LjQzODQiIHk9IjI3Ny43Mjk5Ij5CJiM3ODU1O3QgJiMyNzM7JiM3ODQ3O3UgdHImIzc4NTM7biAmIzI3MzsmIzc4NDU7dTwvdGV4dD48L2c+PCEtLWVudGl0eSBIb3N0LS0+PGcgY2xhc3M9ImVudGl0eSIgZGF0YS1lbnRpdHk9Ikhvc3QiIGRhdGEtc291cmNlLWxpbmU9IjMiIGRhdGEtdWlkPSJlbnQwMDAyIiBpZD0iZW50aXR5X0hvc3QiPjxlbGxpcHNlIGN4PSI0MSIgY3k9IjI4MiIgZmlsbD0iI0YxRjFGMSIgcng9IjgiIHJ5PSI4IiBzdHlsZT0ic3Ryb2tlOiMxODE4MTg7c3Ryb2tlLXdpZHRoOjAuNTsiLz48cGF0aCBkPSJNNDEsMjkwIEw0MSwzMTcgTTI4LDI5OCBMNTQsMjk4IE00MSwzMTcgTDI4LDMzMiBNNDEsMzE3IEw1NCwzMzIiIGZpbGw9Im5vbmUiIHN0eWxlPSJzdHJva2U6IzE4MTgxODtzdHJva2Utd2lkdGg6MC41OyIvPjx0ZXh0IGZpbGw9IiMwMDAwMDAiIGZvbnQtZmFtaWx5PSJzYW5zLXNlcmlmIiBmb250LXNpemU9IjE0IiBsZW5ndGhBZGp1c3Q9InNwYWNpbmciIHRleHRMZW5ndGg9IjYzIiB4PSI5LjUiIHk9IjM0Ni43MzQ0Ij5DaCYjNzkxMTsgcGgmIzI0MjtuZzwvdGV4dD48L2c+PCEtLWVudGl0eSBQbGF5ZXItLT48ZyBjbGFzcz0iZW50aXR5IiBkYXRhLWVudGl0eT0iUGxheWVyIiBkYXRhLXNvdXJjZS1saW5lPSI0IiBkYXRhLXVpZD0iZW50MDAwMyIgaWQ9ImVudGl0eV9QbGF5ZXIiPjxlbGxpcHNlIGN4PSI0MSIgY3k9IjEwOCIgZmlsbD0iI0YxRjFGMSIgcng9IjgiIHJ5PSI4IiBzdHlsZT0ic3Ryb2tlOiMxODE4MTg7c3Ryb2tlLXdpZHRoOjAuNTsiLz48cGF0aCBkPSJNNDEsMTE2IEw0MSwxNDMgTTI4LDEyNCBMNTQsMTI0IE00MSwxNDMgTDI4LDE1OCBNNDEsMTQzIEw1NCwxNTgiIGZpbGw9Im5vbmUiIHN0eWxlPSJzdHJva2U6IzE4MTgxODtzdHJva2Utd2lkdGg6MC41OyIvPjx0ZXh0IGZpbGw9IiMwMDAwMDAiIGZvbnQtZmFtaWx5PSJzYW5zLXNlcmlmIiBmb250LXNpemU9IjE0IiBsZW5ndGhBZGp1c3Q9InNwYWNpbmciIHRleHRMZW5ndGg9IjcwIiB4PSI2IiB5PSIxNzIuNzM0NCI+TmcmIzQzMjsmIzc5MDE7aSBjaCYjNDE3O2k8L3RleHQ+PC9nPjwhLS1saW5rIEhvc3QgdG8gVUNfQ3JlYXRlUm9vbS0tPjxnIGNsYXNzPSJsaW5rIiBkYXRhLWVudGl0eS0xPSJIb3N0IiBkYXRhLWVudGl0eS0yPSJVQ19DcmVhdGVSb29tIiBkYXRhLXNvdXJjZS1saW5lPSIxNCIgZGF0YS11aWQ9ImxuazEwIiBpZD0ibGlua19Ib3N0X1VDX0NyZWF0ZVJvb20iPjxwYXRoIGQ9Ik03Mi42NiwzMDUuNzcgQzEwNC4zMSwzMDAuMzcgMTQ4LjEyNTQsMjkyLjg5ODcgMTg0LjMwNTQsMjg2LjcyODciIGZpbGw9Im5vbmUiIGlkPSJIb3N0LXRvLVVDX0NyZWF0ZVJvb20iIHN0eWxlPSJzdHJva2U6IzE4MTgxODtzdHJva2Utd2lkdGg6MTsiLz48cG9seWdvbiBmaWxsPSIjMTgxODE4IiBwb2ludHM9IjE5MC4yMiwyODUuNzIsMTgwLjY3NTYsMjgzLjI4OTksMTg1LjI5MTIsMjg2LjU2MDUsMTgyLjAyMDUsMjkxLjE3NjEsMTkwLjIyLDI4NS43MiIgc3R5bGU9InN0cm9rZTojMTgxODE4O3N0cm9rZS13aWR0aDoxOyIvPjwvZz48IS0tbGluayBQbGF5ZXIgdG8gVUNfSm9pblJvb20tLT48ZyBjbGFzcz0ibGluayIgZGF0YS1lbnRpdHktMT0iUGxheWVyIiBkYXRhLWVudGl0eS0yPSJVQ19Kb2luUm9vbSIgZGF0YS1zb3VyY2UtbGluZT0iMTUiIGRhdGEtdWlkPSJsbmsxMSIgaWQ9ImxpbmtfUGxheWVyX1VDX0pvaW5Sb29tIj48cGF0aCBkPSJNNzYuMTUsMTM3IEMxMDEuMjEsMTM3IDEzMC4xLDEzNyAxNjAuODQsMTM3IiBmaWxsPSJub25lIiBpZD0iUGxheWVyLXRvLVVDX0pvaW5Sb29tIiBzdHlsZT0ic3Ryb2tlOiMxODE4MTg7c3Ryb2tlLXdpZHRoOjE7Ii8+PHBvbHlnb24gZmlsbD0iIzE4MTgxOCIgcG9pbnRzPSIxNjYuODQsMTM3LDE1Ny44NCwxMzMsMTYxLjg0LDEzNywxNTcuODQsMTQxLDE2Ni44NCwxMzciIHN0eWxlPSJzdHJva2U6IzE4MTgxODtzdHJva2Utd2lkdGg6MTsiLz48L2c+PCEtLWxpbmsgUGxheWVyIHRvIFVDX1dhaXRTdGFydC0tPjxnIGNsYXNzPSJsaW5rIiBkYXRhLWVudGl0eS0xPSJQbGF5ZXIiIGRhdGEtZW50aXR5LTI9IlVDX1dhaXRTdGFydCIgZGF0YS1zb3VyY2UtbGluZT0iMTYiIGRhdGEtdWlkPSJsbmsxMiIgaWQ9ImxpbmtfUGxheWVyX1VDX1dhaXRTdGFydCI+PHBhdGggZD0iTTc2LjA3LDE1NC44NSBDODcuMzQsMTYwLjQgMTAwLjA2LDE2Ni4zIDExMiwxNzEgQzEzMy4wOCwxNzkuMzEgMTUwLjk5OTksMTg1LjI1NjUgMTcxLjkzOTksMTkxLjQ5NjUiIGZpbGw9Im5vbmUiIGlkPSJQbGF5ZXItdG8tVUNfV2FpdFN0YXJ0IiBzdHlsZT0ic3Ryb2tlOiMxODE4MTg7c3Ryb2tlLXdpZHRoOjE7Ii8+PHBvbHlnb24gZmlsbD0iIzE4MTgxOCIgcG9pbnRzPSIxNzcuNjksMTkzLjIxLDE3MC4yMDcyLDE4Ni44MDYzLDE3Mi44OTgyLDE5MS43ODIxLDE2Ny45MjI1LDE5NC40NzMyLDE3Ny42OSwxOTMuMjEiIHN0eWxlPSJzdHJva2U6IzE4MTgxODtzdHJva2Utd2lkdGg6MTsiLz48L2c+PCEtLWxpbmsgUGxheWVyIHRvIFVDX0xvYmJ5TW92ZS0tPjxnIGNsYXNzPSJsaW5rIiBkYXRhLWVudGl0eS0xPSJQbGF5ZXIiIGRhdGEtZW50aXR5LTI9IlVDX0xvYmJ5TW92ZSIgZGF0YS1zb3VyY2UtbGluZT0iMTciIGRhdGEtdWlkPSJsbmsxMyIgaWQ9ImxpbmtfUGxheWVyX1VDX0xvYmJ5TW92ZSI+PHBhdGggZD0iTTc2LjExLDExOS4yNiBDODcuMzgsMTEzLjcxIDEwMC4wOSwxMDcuNzkgMTEyLDEwMyBDMTMyLjA3LDk0LjkyIDE0OC43NDE4LDg5LjA5NzEgMTY4Ljg4MTgsODIuNjk3MSIgZmlsbD0ibm9uZSIgaWQ9IlBsYXllci10by1VQ19Mb2JieU1vdmUiIHN0eWxlPSJzdHJva2U6IzE4MTgxODtzdHJva2Utd2lkdGg6MTsiLz48cG9seWdvbiBmaWxsPSIjMTgxODE4IiBwb2ludHM9IjE3NC42LDgwLjg4LDE2NC44MTEzLDc5Ljc5MzUsMTY5LjgzNDgsODIuMzk0MywxNjcuMjM0MSw4Ny40MTc4LDE3NC42LDgwLjg4IiBzdHlsZT0ic3Ryb2tlOiMxODE4MTg7c3Ryb2tlLXdpZHRoOjE7Ii8+PC9nPjwhLS1saW5rIEhvc3QgdG8gVUNfU3RhcnRNYXRjaC0tPjxnIGNsYXNzPSJsaW5rIiBkYXRhLWVudGl0eS0xPSJIb3N0IiBkYXRhLWVudGl0eS0yPSJVQ19TdGFydE1hdGNoIiBkYXRhLXNvdXJjZS1saW5lPSIxOCIgZGF0YS11aWQ9ImxuazE0IiBpZD0ibGlua19Ib3N0X1VDX1N0YXJ0TWF0Y2giPjxwYXRoIGQ9Ik03Mi43NSwzMTMuMjggQzEyNi41OCwzMTYuNzIgMjQxLjI4LDMyMS41OCAzMzcsMzA5IEMzNjcuOTgsMzA0LjkzIDM5Ni4yODE4LDI5Ny43NCA0MjIuMzgxOCwyODkuOTMiIGZpbGw9Im5vbmUiIGlkPSJIb3N0LXRvLVVDX1N0YXJ0TWF0Y2giIHN0eWxlPSJzdHJva2U6IzE4MTgxODtzdHJva2Utd2lkdGg6MTsiLz48cG9seWdvbiBmaWxsPSIjMTgxODE4IiBwb2ludHM9IjQyOC4xMywyODguMjEsNDE4LjM2MSwyODYuOTU4LDQyMy4zMzk5LDI4OS42NDM0LDQyMC42NTQ0LDI5NC42MjIyLDQyOC4xMywyODguMjEiIHN0eWxlPSJzdHJva2U6IzE4MTgxODtzdHJva2Utd2lkdGg6MTsiLz48L2c+PCEtLWxpbmsgVUNfQ3JlYXRlUm9vbSB0byBVQ19TdGFydE1hdGNoLS0+PGcgY2xhc3M9ImxpbmsiIGRhdGEtZW50aXR5LTE9IlVDX0NyZWF0ZVJvb20iIGRhdGEtZW50aXR5LTI9IlVDX1N0YXJ0TWF0Y2giIGRhdGEtc291cmNlLWxpbmU9IjIwIiBkYXRhLXVpZD0ibG5rMTUiIGlkPSJsaW5rX1VDX0NyZWF0ZVJvb21fVUNfU3RhcnRNYXRjaCI+PHBhdGggZD0iTTI5Mi42NiwyNzcuMDYgQzMyMy43NCwyNzYuNTMgMzU2Ljk4MDksMjc1Ljk2MjkgMzkwLjc5MDksMjc1LjM4MjkiIGZpbGw9Im5vbmUiIGlkPSJVQ19DcmVhdGVSb29tLXRvLVVDX1N0YXJ0TWF0Y2giIHN0eWxlPSJzdHJva2U6IzE4MTgxODtzdHJva2Utd2lkdGg6MTsiLz48cG9seWdvbiBmaWxsPSIjMTgxODE4IiBwb2ludHM9IjM5Ni43OSwyNzUuMjgsMzg3LjcyMjcsMjcxLjQzNSwzOTEuNzkwNywyNzUuMzY1OCwzODcuODU5OSwyNzkuNDMzOCwzOTYuNzksMjc1LjI4IiBzdHlsZT0ic3Ryb2tlOiMxODE4MTg7c3Ryb2tlLXdpZHRoOjE7Ii8+PC9nPjwhLS1TUkM9W1BQMG5KaUQwNDROeEZTTjg1SEl2MFdNY0c4WVdBODBlcVRXaXRmTVM3UkdVOHJjOFlXbDAwSVlZMkFMMjg0Z3g5Q2V6ellSTzZwYlBYdDljX2ZpX1Z0OXZweTA0TGNVQXVLdlJjUjhjOG1JY0oxUVlNQmJjMkdfZ3p5VGE0TTAxZnJIbUZ4cDhyai1rVVRVR2dsTFMtXzRhbnFmUThSZXpRQjlTR1pKblNBamZmTjFtSmFiSTdLUm05MDNBR2dQT2o5OGhMeXlmVEJjRVJzQ2hhVU1LUTNQR0FmbjFmZDVGVjRSUXg0ak5od3ZQUUVfUjl1MzRyTHlDZ3BUTkJ5a1VsSzdEYnVvTUdfWWEweWxBREl5NnM1QUI1Z3ZVNkJNOXFRQy1wOVdVUE9XVTFudWp3LWZGdXdrRmhRRHQ2b0VkSVptQnFOcUtIZ0VabFQyUkpfUTNSUzFYVXRWeGlCeXhCRG1VLThnMXNOXzE3bTAwXS0tPjwvZz48L3N2Zz4=;" vertex="1" parent="1">
            <mxGeometry x="-730" y="1400" width="1523.94" height="949.12" as="geometry" />
          </mxCell>
        </UserObject>
        <UserObject label="" plantUmlData="{&#xa;  &quot;data&quot;: &quot;@startuml\nleft to right direction\n\nactor \&quot;Người chơi\&quot; as Player\nactor \&quot;Hệ thống\&quot; as System\n\nrectangle \&quot;Gameplay chính\&quot; {\n  usecase \&quot;Di chuyển trên bản đồ\&quot; as UC_Move\n  usecase \&quot;Thu thập vũ khí\&quot; as UC_CollectWeapons\n  usecase \&quot;Thu thập vật phẩm buff\&quot; as UC_CollectBuffs\n  usecase \&quot;Tấn công người chơi khác\&quot; as UC_Attack\n  usecase \&quot;Hạ gục đối thủ\&quot; as UC_Kill\n  usecase \&quot;Rơi vật phẩm\&quot; as UC_DropItems\n  usecase \&quot;Đếm ngược hồi sinh\&quot; as UC_RespawnCountdown\n  usecase \&quot;Hồi sinh sau khi chết\&quot; as UC_Respawn\n  usecase \&quot;Kiểm tra thời gian trận đấu\&quot; as UC_CheckTime\n}\n\nPlayer --&gt; UC_Move\nPlayer --&gt; UC_CollectWeapons\nPlayer --&gt; UC_CollectBuffs\nPlayer --&gt; UC_Attack\nPlayer --&gt; UC_Kill\nPlayer --&gt; UC_Respawn\n\nSystem --&gt; UC_DropItems\nSystem --&gt; UC_RespawnCountdown\nSystem --&gt; UC_CheckTime\n\nUC_Kill .&gt; UC_DropItems : &lt;&lt;extend&gt;&gt;\nUC_Kill .&gt; UC_RespawnCountdown : &lt;&lt;extend&gt;&gt;\nUC_RespawnCountdown .&gt; UC_Respawn : &lt;&lt;include&gt;&gt;\n\nUC_Respawn .&gt; UC_Move\n\n@enduml\n&quot;,&#xa;  &quot;format&quot;: &quot;svg&quot;&#xa;}" id="wpfcwqCC3rGuq9T8k83W-4">
          <mxCell style="shape=image;noLabel=1;verticalAlign=top;aspect=fixed;imageAspect=0;image=data:image/svg+xml,PHN2ZyB4bWxucz0iaHR0cDovL3d3dy53My5vcmcvMjAwMC9zdmciIHhtbG5zOnhsaW5rPSJodHRwOi8vd3d3LnczLm9yZy8xOTk5L3hsaW5rIiBjb250ZW50U3R5bGVUeXBlPSJ0ZXh0L2NzcyIgZGF0YS1kaWFncmFtLXR5cGU9IkRFU0NSSVBUSU9OIiBoZWlnaHQ9IjY5NnB4IiBwcmVzZXJ2ZUFzcGVjdFJhdGlvPSJub25lIiBzdHlsZT0id2lkdGg6NDQxcHg7aGVpZ2h0OjY5NnB4O2JhY2tncm91bmQ6I0ZGRkZGRjsiIHZlcnNpb249IjEuMSIgdmlld0JveD0iMCAwIDQ0MSA2OTYiIHdpZHRoPSI0NDFweCIgem9vbUFuZFBhbj0ibWFnbmlmeSI+PGRlZnMvPjxnPjwhLS1jbHVzdGVyIEdhbWVwbGF5IGNoP25oLS0+PGcgY2xhc3M9ImNsdXN0ZXIiIGRhdGEtZW50aXR5PSJHYW1lcGxheSBjaCYjMjM3O25oIiBkYXRhLXNvdXJjZS1saW5lPSI2IiBkYXRhLXVpZD0iZW50MDAwNCIgaWQ9ImNsdXN0ZXJfR2FtZXBsYXkgY2gmIzIzNztuaCI+PHJlY3QgZmlsbD0ibm9uZSIgaGVpZ2h0PSI2ODMiIHJ4PSIyLjUiIHJ5PSIyLjUiIHN0eWxlPSJzdHJva2U6IzE4MTgxODtzdHJva2Utd2lkdGg6MTsiIHdpZHRoPSIyNTMiIHg9IjE4MiIgeT0iNyIvPjx0ZXh0IGZpbGw9IiMwMDAwMDAiIGZvbnQtZmFtaWx5PSJzYW5zLXNlcmlmIiBmb250LXNpemU9IjE0IiBmb250LXdlaWdodD0iYm9sZCIgbGVuZ3RoQWRqdXN0PSJzcGFjaW5nIiB0ZXh0TGVuZ3RoPSI5OCIgeD0iMjU5LjUiIHk9IjIyLjIzNDQiPkdhbWVwbGF5IGNoJiMyMzc7bmg8L3RleHQ+PC9nPjxnIGNsYXNzPSJlbnRpdHkiIGRhdGEtZW50aXR5PSJVQ19Nb3ZlIiBkYXRhLXNvdXJjZS1saW5lPSI3IiBkYXRhLXVpZD0iZW50MDAwNSIgaWQ9ImVudGl0eV9VQ19Nb3ZlIj48ZWxsaXBzZSBjeD0iMzA4LjM4MzkiIGN5PSI0MzEuMDc2OCIgZmlsbD0iI0YxRjFGMSIgcng9IjkwLjg4MzkiIHJ5PSIyMC41NzY4IiBzdHlsZT0ic3Ryb2tlOiMxODE4MTg7c3Ryb2tlLXdpZHRoOjAuNTsiLz48dGV4dCBmaWxsPSIjMDAwMDAwIiBmb250LWZhbWlseT0ic2Fucy1zZXJpZiIgZm9udC1zaXplPSIxNCIgbGVuZ3RoQWRqdXN0PSJzcGFjaW5nIiB0ZXh0TGVuZ3RoPSIxNDciIHg9IjIzNC44ODM5IiB5PSI0MzQuODE5Ij5EaSBjaHV5JiM3ODc1O24gdHImIzIzNDtuIGImIzc4NDM7biAmIzI3MzsmIzc4OTE7PC90ZXh0PjwvZz48ZyBjbGFzcz0iZW50aXR5IiBkYXRhLWVudGl0eT0iVUNfQ29sbGVjdFdlYXBvbnMiIGRhdGEtc291cmNlLWxpbmU9IjgiIGRhdGEtdWlkPSJlbnQwMDA2IiBpZD0iZW50aXR5X1VDX0NvbGxlY3RXZWFwb25zIj48ZWxsaXBzZSBjeD0iMzA4LjQ2NjMiIGN5PSI1Ni44OTMzIiBmaWxsPSIjRjFGMUYxIiByeD0iNzIuNDY2MyIgcnk9IjE2Ljg5MzMiIHN0eWxlPSJzdHJva2U6IzE4MTgxODtzdHJva2Utd2lkdGg6MC41OyIvPjx0ZXh0IGZpbGw9IiMwMDAwMDAiIGZvbnQtZmFtaWx5PSJzYW5zLXNlcmlmIiBmb250LXNpemU9IjE0IiBsZW5ndGhBZGp1c3Q9InNwYWNpbmciIHRleHRMZW5ndGg9IjEwNSIgeD0iMjU1Ljk2NjMiIHk9IjYwLjYzNTUiPlRodSB0aCYjNzg1MztwIHYmIzM2MTsga2gmIzIzNzs8L3RleHQ+PC9nPjxnIGNsYXNzPSJlbnRpdHkiIGRhdGEtZW50aXR5PSJVQ19Db2xsZWN0QnVmZnMiIGRhdGEtc291cmNlLWxpbmU9IjkiIGRhdGEtdWlkPSJlbnQwMDA3IiBpZD0iZW50aXR5X1VDX0NvbGxlY3RCdWZmcyI+PGVsbGlwc2UgY3g9IjMwOC41NjIyIiBjeT0iMTMwLjIxMjQiIGZpbGw9IiNGMUYxRjEiIHJ4PSI5NC4wNjIyIiByeT0iMjEuMjEyNCIgc3R5bGU9InN0cm9rZTojMTgxODE4O3N0cm9rZS13aWR0aDowLjU7Ii8+PHRleHQgZmlsbD0iIzAwMDAwMCIgZm9udC1mYW1pbHk9InNhbnMtc2VyaWYiIGZvbnQtc2l6ZT0iMTQiIGxlbmd0aEFkanVzdD0ic3BhY2luZyIgdGV4dExlbmd0aD0iMTU0IiB4PSIyMzEuNTYyMiIgeT0iMTMzLjk1NDYiPlRodSB0aCYjNzg1MztwIHYmIzc4NTM7dCBwaCYjNzg0OTttIGJ1ZmY8L3RleHQ+PC9nPjxnIGNsYXNzPSJlbnRpdHkiIGRhdGEtZW50aXR5PSJVQ19BdHRhY2siIGRhdGEtc291cmNlLWxpbmU9IjEwIiBkYXRhLXVpZD0iZW50MDAwOCIgaWQ9ImVudGl0eV9VQ19BdHRhY2siPjxlbGxpcHNlIGN4PSIzMDguNDg1IiBjeT0iMjA4Ljk5NyIgZmlsbD0iI0YxRjFGMSIgcng9IjEwMC40ODUiIHJ5PSIyMi40OTciIHN0eWxlPSJzdHJva2U6IzE4MTgxODtzdHJva2Utd2lkdGg6MC41OyIvPjx0ZXh0IGZpbGw9IiMwMDAwMDAiIGZvbnQtZmFtaWx5PSJzYW5zLXNlcmlmIiBmb250LXNpemU9IjE0IiBsZW5ndGhBZGp1c3Q9InNwYWNpbmciIHRleHRMZW5ndGg9IjE2OCIgeD0iMjI0LjQ4NSIgeT0iMjEyLjczOTIiPlQmIzc4NDU7biBjJiMyNDQ7bmcgbmcmIzQzMjsmIzc5MDE7aSBjaCYjNDE3O2kga2gmIzIyNTtjPC90ZXh0PjwvZz48ZyBjbGFzcz0iZW50aXR5IiBkYXRhLWVudGl0eT0iVUNfS2lsbCIgZGF0YS1zb3VyY2UtbGluZT0iMTEiIGRhdGEtdWlkPSJlbnQwMDA5IiBpZD0iZW50aXR5X1VDX0tpbGwiPjxlbGxpcHNlIGN4PSIzMDguNTQ1NiIgY3k9IjI4Mi44MDkxIiBmaWxsPSIjRjFGMUYxIiByeD0iNjkuNTQ1NiIgcnk9IjE2LjMwOTEiIHN0eWxlPSJzdHJva2U6IzE4MTgxODtzdHJva2Utd2lkdGg6MC41OyIvPjx0ZXh0IGZpbGw9IiMwMDAwMDAiIGZvbnQtZmFtaWx5PSJzYW5zLXNlcmlmIiBmb250LXNpemU9IjE0IiBsZW5ndGhBZGp1c3Q9InNwYWNpbmciIHRleHRMZW5ndGg9Ijk4IiB4PSIyNTkuNTQ1NiIgeT0iMjg2LjU1MTMiPkgmIzc4NDE7IGcmIzc5MDk7YyAmIzI3MzsmIzc4ODk7aSB0aCYjNzkxMTs8L3RleHQ+PC9nPjxnIGNsYXNzPSJlbnRpdHkiIGRhdGEtZW50aXR5PSJVQ19Ecm9wSXRlbXMiIGRhdGEtc291cmNlLWxpbmU9IjEyIiBkYXRhLXVpZD0iZW50MDAxMCIgaWQ9ImVudGl0eV9VQ19Ecm9wSXRlbXMiPjxlbGxpcHNlIGN4PSIzMDguMzg3OCIgY3k9IjUwMi4xNzc2IiBmaWxsPSIjRjFGMUYxIiByeD0iNjMuODg3OCIgcnk9IjE1LjE3NzYiIHN0eWxlPSJzdHJva2U6IzE4MTgxODtzdHJva2Utd2lkdGg6MC41OyIvPjx0ZXh0IGZpbGw9IiMwMDAwMDAiIGZvbnQtZmFtaWx5PSJzYW5zLXNlcmlmIiBmb250LXNpemU9IjE0IiBsZW5ndGhBZGp1c3Q9InNwYWNpbmciIHRleHRMZW5ndGg9Ijg0IiB4PSIyNjYuMzg3OCIgeT0iNTA1LjkxOTciPlImIzQxNztpIHYmIzc4NTM7dCBwaCYjNzg0OTttPC90ZXh0PjwvZz48ZyBjbGFzcz0iZW50aXR5IiBkYXRhLWVudGl0eT0iVUNfUmVzcGF3bkNvdW50ZG93biIgZGF0YS1zb3VyY2UtbGluZT0iMTMiIGRhdGEtdWlkPSJlbnQwMDExIiBpZD0iZW50aXR5X1VDX1Jlc3Bhd25Db3VudGRvd24iPjxlbGxpcHNlIGN4PSIzMDguNTEzMiIgY3k9IjU3MS4yMDI2IiBmaWxsPSIjRjFGMUYxIiByeD0iODEuNTEzMiIgcnk9IjE4LjcwMjYiIHN0eWxlPSJzdHJva2U6IzE4MTgxODtzdHJva2Utd2lkdGg6MC41OyIvPjx0ZXh0IGZpbGw9IiMwMDAwMDAiIGZvbnQtZmFtaWx5PSJzYW5zLXNlcmlmIiBmb250LXNpemU9IjE0IiBsZW5ndGhBZGp1c3Q9InNwYWNpbmciIHRleHRMZW5ndGg9IjEyNiIgeD0iMjQ1LjUxMzIiIHk9IjU3NC45NDQ4Ij4mIzI3MjsmIzc4NzE7bSBuZyYjNDMyOyYjNzkwNztjIGgmIzc4OTE7aSBzaW5oPC90ZXh0PjwvZz48ZyBjbGFzcz0iZW50aXR5IiBkYXRhLWVudGl0eT0iVUNfUmVzcGF3biIgZGF0YS1zb3VyY2UtbGluZT0iMTQiIGRhdGEtdWlkPSJlbnQwMDEyIiBpZD0iZW50aXR5X1VDX1Jlc3Bhd24iPjxlbGxpcHNlIGN4PSIzMDguMzgzOSIgY3k9IjM1NS4wNzY4IiBmaWxsPSIjRjFGMUYxIiByeD0iOTAuODgzOSIgcnk9IjIwLjU3NjgiIHN0eWxlPSJzdHJva2U6IzE4MTgxODtzdHJva2Utd2lkdGg6MC41OyIvPjx0ZXh0IGZpbGw9IiMwMDAwMDAiIGZvbnQtZmFtaWx5PSJzYW5zLXNlcmlmIiBmb250LXNpemU9IjE0IiBsZW5ndGhBZGp1c3Q9InNwYWNpbmciIHRleHRMZW5ndGg9IjE0NyIgeD0iMjM0Ljg4MzkiIHk9IjM1OC44MTkiPkgmIzc4OTE7aSBzaW5oIHNhdSBraGkgY2gmIzc4NzE7dDwvdGV4dD48L2c+PGcgY2xhc3M9ImVudGl0eSIgZGF0YS1lbnRpdHk9IlVDX0NoZWNrVGltZSIgZGF0YS1zb3VyY2UtbGluZT0iMTUiIGRhdGEtdWlkPSJlbnQwMDEzIiBpZD0iZW50aXR5X1VDX0NoZWNrVGltZSI+PGVsbGlwc2UgY3g9IjMwOC4yNTQ3IiBjeT0iNjQ4Ljk1MDkiIGZpbGw9IiNGMUYxRjEiIHJ4PSIxMTAuMjU0NyIgcnk9IjI0LjQ1MDkiIHN0eWxlPSJzdHJva2U6IzE4MTgxODtzdHJva2Utd2lkdGg6MC41OyIvPjx0ZXh0IGZpbGw9IiMwMDAwMDAiIGZvbnQtZmFtaWx5PSJzYW5zLXNlcmlmIiBmb250LXNpemU9IjE0IiBsZW5ndGhBZGp1c3Q9InNwYWNpbmciIHRleHRMZW5ndGg9IjE4OSIgeD0iMjEzLjc1NDciIHk9IjY1Mi42OTMxIj5LaSYjNzg3NTttIHRyYSB0aCYjNzkwMTtpIGdpYW4gdHImIzc4NTM7biAmIzI3MzsmIzc4NDU7dTwvdGV4dD48L2c+PCEtLWVudGl0eSBQbGF5ZXItLT48ZyBjbGFzcz0iZW50aXR5IiBkYXRhLWVudGl0eT0iUGxheWVyIiBkYXRhLXNvdXJjZS1saW5lPSIzIiBkYXRhLXVpZD0iZW50MDAwMiIgaWQ9ImVudGl0eV9QbGF5ZXIiPjxlbGxpcHNlIGN4PSI0MSIgY3k9IjIxOCIgZmlsbD0iI0YxRjFGMSIgcng9IjgiIHJ5PSI4IiBzdHlsZT0ic3Ryb2tlOiMxODE4MTg7c3Ryb2tlLXdpZHRoOjAuNTsiLz48cGF0aCBkPSJNNDEsMjI2IEw0MSwyNTMgTTI4LDIzNCBMNTQsMjM0IE00MSwyNTMgTDI4LDI2OCBNNDEsMjUzIEw1NCwyNjgiIGZpbGw9Im5vbmUiIHN0eWxlPSJzdHJva2U6IzE4MTgxODtzdHJva2Utd2lkdGg6MC41OyIvPjx0ZXh0IGZpbGw9IiMwMDAwMDAiIGZvbnQtZmFtaWx5PSJzYW5zLXNlcmlmIiBmb250LXNpemU9IjE0IiBsZW5ndGhBZGp1c3Q9InNwYWNpbmciIHRleHRMZW5ndGg9IjcwIiB4PSI2IiB5PSIyODIuNzM0NCI+TmcmIzQzMjsmIzc5MDE7aSBjaCYjNDE3O2k8L3RleHQ+PC9nPjwhLS1lbnRpdHkgU3lzdGVtLS0+PGcgY2xhc3M9ImVudGl0eSIgZGF0YS1lbnRpdHk9IlN5c3RlbSIgZGF0YS1zb3VyY2UtbGluZT0iNCIgZGF0YS11aWQ9ImVudDAwMDMiIGlkPSJlbnRpdHlfU3lzdGVtIj48ZWxsaXBzZSBjeD0iNDEiIGN5PSI1NDIiIGZpbGw9IiNGMUYxRjEiIHJ4PSI4IiByeT0iOCIgc3R5bGU9InN0cm9rZTojMTgxODE4O3N0cm9rZS13aWR0aDowLjU7Ii8+PHBhdGggZD0iTTQxLDU1MCBMNDEsNTc3IE0yOCw1NTggTDU0LDU1OCBNNDEsNTc3IEwyOCw1OTIgTTQxLDU3NyBMNTQsNTkyIiBmaWxsPSJub25lIiBzdHlsZT0ic3Ryb2tlOiMxODE4MTg7c3Ryb2tlLXdpZHRoOjAuNTsiLz48dGV4dCBmaWxsPSIjMDAwMDAwIiBmb250LWZhbWlseT0ic2Fucy1zZXJpZiIgZm9udC1zaXplPSIxNCIgbGVuZ3RoQWRqdXN0PSJzcGFjaW5nIiB0ZXh0TGVuZ3RoPSI1NiIgeD0iMTMiIHk9IjYwNi43MzQ0Ij5IJiM3ODc5OyB0aCYjNzg4OTtuZzwvdGV4dD48L2c+PCEtLWxpbmsgUGxheWVyIHRvIFVDX01vdmUtLT48ZyBjbGFzcz0ibGluayIgZGF0YS1lbnRpdHktMT0iUGxheWVyIiBkYXRhLWVudGl0eS0yPSJVQ19Nb3ZlIiBkYXRhLXNvdXJjZS1saW5lPSIxOCIgZGF0YS11aWQ9ImxuazE0IiBpZD0ibGlua19QbGF5ZXJfVUNfTW92ZSI+PHBhdGggZD0iTTQ2LjQzLDI4NC43OSBDNTIuODgsMzIxLjU5IDY4LjUxLDM3Ni4wNyAxMDYsNDA1IEMxMzguOTUsNDMwLjQyIDE3OC4zNDEsNDM3LjgyMTggMjE3LjcwMSw0MzguNTMxOCIgZmlsbD0ibm9uZSIgaWQ9IlBsYXllci10by1VQ19Nb3ZlIiBzdHlsZT0ic3Ryb2tlOiMxODE4MTg7c3Ryb2tlLXdpZHRoOjE7Ii8+PHBvbHlnb24gZmlsbD0iIzE4MTgxOCIgcG9pbnRzPSIyMjMuNyw0MzguNjQsMjE0Ljc3MzYsNDM0LjQ3ODMsMjE4LjcwMDgsNDM4LjU0OTgsMjE0LjYyOTMsNDQyLjQ3NywyMjMuNyw0MzguNjQiIHN0eWxlPSJzdHJva2U6IzE4MTgxODtzdHJva2Utd2lkdGg6MTsiLz48L2c+PCEtLWxpbmsgUGxheWVyIHRvIFVDX0NvbGxlY3RXZWFwb25zLS0+PGcgY2xhc3M9ImxpbmsiIGRhdGEtZW50aXR5LTE9IlBsYXllciIgZGF0YS1lbnRpdHktMj0iVUNfQ29sbGVjdFdlYXBvbnMiIGRhdGEtc291cmNlLWxpbmU9IjE5IiBkYXRhLXVpZD0ibG5rMTUiIGlkPSJsaW5rX1BsYXllcl9VQ19Db2xsZWN0V2VhcG9ucyI+PHBhdGggZD0iTTYzLjY4LDIwOS4zMSBDODYuNDYsMTczLjIyIDEyNS42NywxMjAuMDkgMTc0LDkxIEMxOTUuMzEsNzguMTcgMjE1LjQ3MjUsNzEuNDEzNyAyMzguODcyNSw2Ni40MTM3IiBmaWxsPSJub25lIiBpZD0iUGxheWVyLXRvLVVDX0NvbGxlY3RXZWFwb25zIiBzdHlsZT0ic3Ryb2tlOiMxODE4MTg7c3Ryb2tlLXdpZHRoOjE7Ii8+PHBvbHlnb24gZmlsbD0iIzE4MTgxOCIgcG9pbnRzPSIyNDQuNzQsNjUuMTYsMjM1LjEwMjgsNjMuMTI4OSwyMzkuODUwNCw2Ni4yMDQ4LDIzNi43NzQ1LDcwLjk1MjMsMjQ0Ljc0LDY1LjE2IiBzdHlsZT0ic3Ryb2tlOiMxODE4MTg7c3Ryb2tlLXdpZHRoOjE7Ii8+PC9nPjwhLS1saW5rIFBsYXllciB0byBVQ19Db2xsZWN0QnVmZnMtLT48ZyBjbGFzcz0ibGluayIgZGF0YS1lbnRpdHktMT0iUGxheWVyIiBkYXRhLWVudGl0eS0yPSJVQ19Db2xsZWN0QnVmZnMiIGRhdGEtc291cmNlLWxpbmU9IjIwIiBkYXRhLXVpZD0ibG5rMTYiIGlkPSJsaW5rX1BsYXllcl9VQ19Db2xsZWN0QnVmZnMiPjxwYXRoIGQ9Ik03Ni4yLDIyNi42NiBDODUuODMsMjIwLjk0IDk2LjMyLDIxNC43MiAxMDYsMjA5IEMxMzYuMTksMTkxLjE2IDE0MS44MSwxODIuOTEgMTc0LDE2OSBDMTk2LjA1LDE1OS40NyAyMTUuMzQ5LDE1My4wNTY0IDIzNy43NjksMTQ2LjgyNjQiIGZpbGw9Im5vbmUiIGlkPSJQbGF5ZXItdG8tVUNfQ29sbGVjdEJ1ZmZzIiBzdHlsZT0ic3Ryb2tlOiMxODE4MTg7c3Ryb2tlLXdpZHRoOjE7Ii8+PHBvbHlnb24gZmlsbD0iIzE4MTgxOCIgcG9pbnRzPSIyNDMuNTUsMTQ1LjIyLDIzMy44MDc2LDE0My43NzU2LDIzOC43MzI1LDE0Ni41NTg3LDIzNS45NDk1LDE1MS40ODM2LDI0My41NSwxNDUuMjIiIHN0eWxlPSJzdHJva2U6IzE4MTgxODtzdHJva2Utd2lkdGg6MTsiLz48L2c+PCEtLWxpbmsgUGxheWVyIHRvIFVDX0F0dGFjay0tPjxnIGNsYXNzPSJsaW5rIiBkYXRhLWVudGl0eS0xPSJQbGF5ZXIiIGRhdGEtZW50aXR5LTI9IlVDX0F0dGFjayIgZGF0YS1zb3VyY2UtbGluZT0iMjEiIGRhdGEtdWlkPSJsbmsxNyIgaWQ9ImxpbmtfUGxheWVyX1VDX0F0dGFjayI+PHBhdGggZD0iTTc2LjE3LDI0Mi4xMSBDMTEzLjE0LDIzNi44MiAxNjcuNTUwNiwyMjkuMDMwNSAyMTcuMzQwNiwyMjEuOTAwNSIgZmlsbD0ibm9uZSIgaWQ9IlBsYXllci10by1VQ19BdHRhY2siIHN0eWxlPSJzdHJva2U6IzE4MTgxODtzdHJva2Utd2lkdGg6MTsiLz48cG9seWdvbiBmaWxsPSIjMTgxODE4IiBwb2ludHM9IjIyMy4yOCwyMjEuMDUsMjEzLjgwMzksMjE4LjM2NjIsMjE4LjMzMDUsMjIxLjc1ODgsMjE0LjkzNzksMjI2LjI4NTQsMjIzLjI4LDIyMS4wNSIgc3R5bGU9InN0cm9rZTojMTgxODE4O3N0cm9rZS13aWR0aDoxOyIvPjwvZz48IS0tbGluayBQbGF5ZXIgdG8gVUNfS2lsbC0tPjxnIGNsYXNzPSJsaW5rIiBkYXRhLWVudGl0eS0xPSJQbGF5ZXIiIGRhdGEtZW50aXR5LTI9IlVDX0tpbGwiIGRhdGEtc291cmNlLWxpbmU9IjIyIiBkYXRhLXVpZD0ibG5rMTgiIGlkPSJsaW5rX1BsYXllcl9VQ19LaWxsIj48cGF0aCBkPSJNNzYuMTcsMjUxLjYzIEMxMTkuNDQsMjU3LjUgMTg4Ljc5NDMsMjY2LjkwNDMgMjQxLjcwNDMsMjc0LjA3NDMiIGZpbGw9Im5vbmUiIGlkPSJQbGF5ZXItdG8tVUNfS2lsbCIgc3R5bGU9InN0cm9rZTojMTgxODE4O3N0cm9rZS13aWR0aDoxOyIvPjxwb2x5Z29uIGZpbGw9IiMxODE4MTgiIHBvaW50cz0iMjQ3LjY1LDI3NC44OCwyMzkuMjY4NywyNjkuNzA3NywyNDIuNjk1MywyNzQuMjA4NiwyMzguMTk0NCwyNzcuNjM1MiwyNDcuNjUsMjc0Ljg4IiBzdHlsZT0ic3Ryb2tlOiMxODE4MTg7c3Ryb2tlLXdpZHRoOjE7Ii8+PC9nPjwhLS1saW5rIFBsYXllciB0byBVQ19SZXNwYXduLS0+PGcgY2xhc3M9ImxpbmsiIGRhdGEtZW50aXR5LTE9IlBsYXllciIgZGF0YS1lbnRpdHktMj0iVUNfUmVzcGF3biIgZGF0YS1zb3VyY2UtbGluZT0iMjMiIGRhdGEtdWlkPSJsbmsxOSIgaWQ9ImxpbmtfUGxheWVyX1VDX1Jlc3Bhd24iPjxwYXRoIGQ9Ik03Ni4wNiwyNjcuNjMgQzEwMi4xNywyODIuOCAxMzkuNDcsMzAzLjExIDE3NCwzMTcgQzE5Ni42OSwzMjYuMTMgMjE2LjU4OTUsMzMyLjQxODIgMjM5LjMxOTUsMzM4LjU4ODIiIGZpbGw9Im5vbmUiIGlkPSJQbGF5ZXItdG8tVUNfUmVzcGF3biIgc3R5bGU9InN0cm9rZTojMTgxODE4O3N0cm9rZS13aWR0aDoxOyIvPjxwb2x5Z29uIGZpbGw9IiMxODE4MTgiIHBvaW50cz0iMjQ1LjExLDM0MC4xNiwyMzcuNDcyMiwzMzMuOTQyLDI0MC4yODQ2LDMzOC44NTAyLDIzNS4zNzY0LDM0MS42NjI2LDI0NS4xMSwzNDAuMTYiIHN0eWxlPSJzdHJva2U6IzE4MTgxODtzdHJva2Utd2lkdGg6MTsiLz48L2c+PCEtLWxpbmsgU3lzdGVtIHRvIFVDX0Ryb3BJdGVtcy0tPjxnIGNsYXNzPSJsaW5rIiBkYXRhLWVudGl0eS0xPSJTeXN0ZW0iIGRhdGEtZW50aXR5LTI9IlVDX0Ryb3BJdGVtcyIgZGF0YS1zb3VyY2UtbGluZT0iMjUiIGRhdGEtdWlkPSJsbmsyMCIgaWQ9ImxpbmtfU3lzdGVtX1VDX0Ryb3BJdGVtcyI+PHBhdGggZD0iTTY5LjAyLDU1OC43OSBDODAuMjksNTU0LjAzIDkzLjYyLDU0OC44IDEwNiw1NDUgQzE1NS45Miw1MjkuNjYgMjA4LjUzMzMsNTE4Ljg4NDIgMjQ5LjYwMzMsNTExLjU1NDIiIGZpbGw9Im5vbmUiIGlkPSJTeXN0ZW0tdG8tVUNfRHJvcEl0ZW1zIiBzdHlsZT0ic3Ryb2tlOiMxODE4MTg7c3Ryb2tlLXdpZHRoOjE7Ii8+PHBvbHlnb24gZmlsbD0iIzE4MTgxOCIgcG9pbnRzPSIyNTUuNTEsNTEwLjUsMjQ1Ljk0NzIsNTA4LjE0MzUsMjUwLjU4NzgsNTExLjM3ODUsMjQ3LjM1MjgsNTE2LjAxOTEsMjU1LjUxLDUxMC41IiBzdHlsZT0ic3Ryb2tlOiMxODE4MTg7c3Ryb2tlLXdpZHRoOjE7Ii8+PC9nPjwhLS1saW5rIFN5c3RlbSB0byBVQ19SZXNwYXduQ291bnRkb3duLS0+PGcgY2xhc3M9ImxpbmsiIGRhdGEtZW50aXR5LTE9IlN5c3RlbSIgZGF0YS1lbnRpdHktMj0iVUNfUmVzcGF3bkNvdW50ZG93biIgZGF0YS1zb3VyY2UtbGluZT0iMjYiIGRhdGEtdWlkPSJsbmsyMSIgaWQ9ImxpbmtfU3lzdGVtX1VDX1Jlc3Bhd25Db3VudGRvd24iPjxwYXRoIGQ9Ik02OS40MSw1NzEgQzEwNi4yNSw1NzEgMTY3LjI3LDU3MSAyMjAuODQsNTcxIiBmaWxsPSJub25lIiBpZD0iU3lzdGVtLXRvLVVDX1Jlc3Bhd25Db3VudGRvd24iIHN0eWxlPSJzdHJva2U6IzE4MTgxODtzdHJva2Utd2lkdGg6MTsiLz48cG9seWdvbiBmaWxsPSIjMTgxODE4IiBwb2ludHM9IjIyNi44NCw1NzEsMjE3Ljg0LDU2NywyMjEuODQsNTcxLDIxNy44NCw1NzUsMjI2Ljg0LDU3MSIgc3R5bGU9InN0cm9rZTojMTgxODE4O3N0cm9rZS13aWR0aDoxOyIvPjwvZz48IS0tbGluayBTeXN0ZW0gdG8gVUNfQ2hlY2tUaW1lLS0+PGcgY2xhc3M9ImxpbmsiIGRhdGEtZW50aXR5LTE9IlN5c3RlbSIgZGF0YS1lbnRpdHktMj0iVUNfQ2hlY2tUaW1lIiBkYXRhLXNvdXJjZS1saW5lPSIyNyIgZGF0YS11aWQ9ImxuazIyIiBpZD0ibGlua19TeXN0ZW1fVUNfQ2hlY2tUaW1lIj48cGF0aCBkPSJNNjkuNDEsNTc5LjA1IEMxMDkuNjIsNTkwLjg3IDE4MC4wNjM1LDYxMS41NTgxIDIzNS40NTM1LDYyNy44MzgxIiBmaWxsPSJub25lIiBpZD0iU3lzdGVtLXRvLVVDX0NoZWNrVGltZSIgc3R5bGU9InN0cm9rZTojMTgxODE4O3N0cm9rZS13aWR0aDoxOyIvPjxwb2x5Z29uIGZpbGw9IiMxODE4MTgiIHBvaW50cz0iMjQxLjIxLDYyOS41MywyMzMuNzAzMiw2MjMuMTU0NCwyMzYuNDEyOSw2MjguMTIwMSwyMzEuNDQ3Myw2MzAuODI5OCwyNDEuMjEsNjI5LjUzIiBzdHlsZT0ic3Ryb2tlOiMxODE4MTg7c3Ryb2tlLXdpZHRoOjE7Ii8+PC9nPjwhLS1saW5rIFVDX0tpbGwgdG8gVUNfRHJvcEl0ZW1zLS0+PGcgY2xhc3M9ImxpbmsiIGRhdGEtZW50aXR5LTE9IlVDX0tpbGwiIGRhdGEtZW50aXR5LTI9IlVDX0Ryb3BJdGVtcyIgZGF0YS1zb3VyY2UtbGluZT0iMjkiIGRhdGEtdWlkPSJsbmsyMyIgaWQ9ImxpbmtfVUNfS2lsbF9VQ19Ecm9wSXRlbXMiPjxwYXRoIGQ9Ik0yMzkuNSwyODUuNTYgQzIwMC42NiwyOTEuMjMgMTU2LjIsMzA1Ljk1IDEzNywzNDIuNSBDMTA5Ljc2LDM5NC4zNiAxMzAuOTYsNDI5LjI2IDE3NCw0NjkgQzE5My4yNiw0ODYuNzggMjE0LjU3NzMsNDk0LjQ0MDIgMjM5LjUwNzMsNDk4LjQ4MDIiIGZpbGw9Im5vbmUiIGlkPSJVQ19LaWxsLXRvLVVDX0Ryb3BJdGVtcyIgc3R5bGU9InN0cm9rZTojMTgxODE4O3N0cm9rZS13aWR0aDoxO3N0cm9rZS1kYXNoYXJyYXk6Ny4wLDcuMDsiLz48cG9seWdvbiBmaWxsPSIjMTgxODE4IiBwb2ludHM9IjI0NS40Myw0OTkuNDQsMjM3LjE4NTgsNDk0LjA1MTgsMjQwLjQ5NDQsNDk4LjY0MDIsMjM1LjkwNiw1MDEuOTQ4OCwyNDUuNDMsNDk5LjQ0IiBzdHlsZT0ic3Ryb2tlOiMxODE4MTg7c3Ryb2tlLXdpZHRoOjE7Ii8+PHRleHQgZmlsbD0iIzAwMDAwMCIgZm9udC1mYW1pbHk9InNhbnMtc2VyaWYiIGZvbnQtc2l6ZT0iMTMiIGxlbmd0aEFkanVzdD0ic3BhY2luZyIgdGV4dExlbmd0aD0iNTIiIHg9IjExMCIgeT0iMzU1Ljc4OTEiPiYjMTcxO2V4dGVuZCYjMTg3OzwvdGV4dD48L2c+PCEtLWxpbmsgVUNfS2lsbCB0byBVQ19SZXNwYXduQ291bnRkb3duLS0+PGcgY2xhc3M9ImxpbmsiIGRhdGEtZW50aXR5LTE9IlVDX0tpbGwiIGRhdGEtZW50aXR5LTI9IlVDX1Jlc3Bhd25Db3VudGRvd24iIGRhdGEtc291cmNlLWxpbmU9IjMwIiBkYXRhLXVpZD0ibG5rMjQiIGlkPSJsaW5rX1VDX0tpbGxfVUNfUmVzcGF3bkNvdW50ZG93biI+PHBhdGggZD0iTTI0NS44NCwyOTAuMTUgQzIyMS45NCwyOTUuMDIgMTk1LjM1LDMwMy4yMiAxNzQsMzE3IEMxNTEuODEsMzMxLjMyIDE0NS43MSwzMzguNTcgMTM3LDM2My41IEMxMTEuNDMsNDM2LjcgMTIwLjEzLDQ3OC4yMiAxNzQsNTM0IEMxODkuMzEsNTQ5Ljg1IDIwNC45MTE2LDU1Ny42NDUxIDIyNi4xNjE2LDU2Mi45OTUxIiBmaWxsPSJub25lIiBpZD0iVUNfS2lsbC10by1VQ19SZXNwYXduQ291bnRkb3duIiBzdHlsZT0ic3Ryb2tlOiMxODE4MTg7c3Ryb2tlLXdpZHRoOjE7c3Ryb2tlLWRhc2hhcnJheTo3LjAsNy4wOyIvPjxwb2x5Z29uIGZpbGw9IiMxODE4MTgiIHBvaW50cz0iMjMxLjk4LDU2NC40NiwyMjQuMjI4OSw1NTguMzgzNywyMjcuMTMxMyw1NjMuMjM5MywyMjIuMjc1OCw1NjYuMTQxNiwyMzEuOTgsNTY0LjQ2IiBzdHlsZT0ic3Ryb2tlOiMxODE4MTg7c3Ryb2tlLXdpZHRoOjE7Ii8+PHRleHQgZmlsbD0iIzAwMDAwMCIgZm9udC1mYW1pbHk9InNhbnMtc2VyaWYiIGZvbnQtc2l6ZT0iMTMiIGxlbmd0aEFkanVzdD0ic3BhY2luZyIgdGV4dExlbmd0aD0iNTIiIHg9IjExMCIgeT0iMzc2Ljc4OTEiPiYjMTcxO2V4dGVuZCYjMTg3OzwvdGV4dD48L2c+PCEtLWxpbmsgVUNfUmVzcGF3bkNvdW50ZG93biB0byBVQ19SZXNwYXduLS0+PGcgY2xhc3M9ImxpbmsiIGRhdGEtZW50aXR5LTE9IlVDX1Jlc3Bhd25Db3VudGRvd24iIGRhdGEtZW50aXR5LTI9IlVDX1Jlc3Bhd24iIGRhdGEtc291cmNlLWxpbmU9IjMxIiBkYXRhLXVpZD0ibG5rMjUiIGlkPSJsaW5rX1VDX1Jlc3Bhd25Db3VudGRvd25fVUNfUmVzcGF3biI+PHBhdGggZD0iTTIzMi45MSw1NjMuOTcgQzIxMS41Nyw1NTguNjEgMTg5Ljg2LDU0OS40NyAxNzQsNTM0IEMxMjUuMzgsNDg2LjU3IDkwLjQ1LDQzOC42MiAxMzQsMzg2LjUgQzE1NS4xMiwzNjEuMjIgMTgzLjA5MDMsMzUyLjA2MzIgMjE1LjQ2MDMsMzQ5LjM5MzIiIGZpbGw9Im5vbmUiIGlkPSJVQ19SZXNwYXduQ291bnRkb3duLXRvLVVDX1Jlc3Bhd24iIHN0eWxlPSJzdHJva2U6IzE4MTgxODtzdHJva2Utd2lkdGg6MTtzdHJva2UtZGFzaGFycmF5OjcuMCw3LjA7Ii8+PHBvbHlnb24gZmlsbD0iIzE4MTgxOCIgcG9pbnRzPSIyMjEuNDQsMzQ4LjksMjEyLjE0MTYsMzQ1LjY1MzQsMjE2LjQ1NjksMzQ5LjMxMSwyMTIuNzk5MywzNTMuNjI2MywyMjEuNDQsMzQ4LjkiIHN0eWxlPSJzdHJva2U6IzE4MTgxODtzdHJva2Utd2lkdGg6MTsiLz48dGV4dCBmaWxsPSIjMDAwMDAwIiBmb250LWZhbWlseT0ic2Fucy1zZXJpZiIgZm9udC1zaXplPSIxMyIgbGVuZ3RoQWRqdXN0PSJzcGFjaW5nIiB0ZXh0TGVuZ3RoPSI1OC41IiB4PSIxMDciIHk9IjM5OS43ODkxIj4mIzE3MTtpbmNsdWRlJiMxODc7PC90ZXh0PjwvZz48IS0tbGluayBVQ19SZXNwYXduIHRvIFVDX01vdmUtLT48ZyBjbGFzcz0ibGluayIgZGF0YS1lbnRpdHktMT0iVUNfUmVzcGF3biIgZGF0YS1lbnRpdHktMj0iVUNfTW92ZSIgZGF0YS1zb3VyY2UtbGluZT0iMzMiIGRhdGEtdWlkPSJsbmsyNiIgaWQ9ImxpbmtfVUNfUmVzcGF3bl9VQ19Nb3ZlIj48cGF0aCBkPSJNMzA4LjUsMzc1LjcxIEMzMDguNSwzODcuMjEgMzA4LjUsMzkyLjcxIDMwOC41LDQwNC4yMiIgZmlsbD0ibm9uZSIgaWQ9IlVDX1Jlc3Bhd24tdG8tVUNfTW92ZSIgc3R5bGU9InN0cm9rZTojMTgxODE4O3N0cm9rZS13aWR0aDoxO3N0cm9rZS1kYXNoYXJyYXk6Ny4wLDcuMDsiLz48cG9seWdvbiBmaWxsPSIjMTgxODE4IiBwb2ludHM9IjMwOC41LDQxMC4yMiwzMTIuNSw0MDEuMjIsMzA4LjUsNDA1LjIyLDMwNC41LDQwMS4yMiwzMDguNSw0MTAuMjIiIHN0eWxlPSJzdHJva2U6IzE4MTgxODtzdHJva2Utd2lkdGg6MTsiLz48L2c+PCEtLVNSQz1bVExCMUlpRDA0QnRsTG1vendtVTg1Qkc1YlFBOExacEFranFjSXZGVGE2blFZdFpvdUROWXNLRUg4V2cyMXFfOW1LRkxfeldfU0pQakQ5bGc5UDJQenp4Q2xCUzF4c2xHMmNCWC1IZnc4a1BDMm9LOWVLb2g2MWU3dGpVaG9VeTVDRnpoQVhmMDRwV0N3OVo3OU0zTnYzVVdWUERGZjVVcVp5VTl2WTRYTGViQUItM0dzQTRYWnYyNThsQ053SlZXYVcyYTJNU3FtTXhSWWdUWmFyekJxRjd5TVNBdm9IdWFWNG5DVmJUOGRoSkV6ak1HTHFiVEZ4TEppdlM4WGZ6RkM0M1g0amZJR08ycEpwY0RiNHAtOC01Tkd1R19KbzZTZl9yLVpSc0Q5UFRoaWZhNERkLUo3YVo3NTNqeW9haC1ialFLM1FoQ05QRERtSkZ2WjFLZEpLSFhyc0Q5dzhXV2dDQUZoNkhybEhCT1piTXFYek93UXR0U2NrbXpONnhxbTAyTHhtR2FtaGd5ZTF0bjlBOFpzTEFmcjNxcmFrdmc5SGVJY2s4WHpZR0tyM0xvYlRDSGM1SThJVDdZM2RKMTR6R2NYb2lOZU1NcHpDVENkeEQxTHVJU04xNm9VM1VtampSeTJUR2pyT0J4aXhkOG5NcWpCTlVCWFFya2dKbzZCOXZlTVZ4cnJRc2w2RVVzVnN5Wm90Nm14a2gxMWNua3lXbERQUV9QaDg3Z3VZbE81TzMzQS0xMmlZM2pTU0hOMjRrU2pWU1JdLS0+PC9nPjwvc3ZnPg==;" vertex="1" parent="1">
            <mxGeometry x="1190" y="1360" width="1102.5" height="1740" as="geometry" />
          </mxCell>
        </UserObject>
      </root>
    </mxGraphModel>
  </diagram>
</mxfile>
